<svg width="200" height="200" viewBox="0 0 200 200" fill="none" xmlns="http://www.w3.org/2000/svg">
<path fill-rule="evenodd" clip-rule="evenodd" d="M114.068 78.6321C122.828 78.6321 129.929 71.5311 129.929 62.7717C129.929 54.0122 122.828 46.9112 114.068 46.9112C105.309 46.9112 98.208 54.0122 98.208 62.7717C98.208 71.5311 105.309 78.6321 114.068 78.6321ZM108.484 63.4418C112.185 63.4418 115.185 60.4414 115.185 56.7402C115.185 53.039 112.185 50.0386 108.484 50.0386C104.783 50.0386 101.782 53.039 101.782 56.7402C101.782 60.4414 104.783 63.4418 108.484 63.4418Z" fill="#006BB7"/>
<path fill-rule="evenodd" clip-rule="evenodd" d="M77.8797 79.5257C86.6392 79.5257 93.7402 72.4247 93.7402 63.6652C93.7402 54.9057 86.6392 47.8047 77.8797 47.8047C69.1203 47.8047 62.0193 54.9057 62.0193 63.6652C62.0193 72.4247 69.1203 79.5257 77.8797 79.5257ZM71.8483 63.8886C75.5495 63.8886 78.5499 60.8882 78.5499 57.187C78.5499 53.4858 75.5495 50.4854 71.8483 50.4854C68.1471 50.4854 65.1467 53.4858 65.1467 57.187C65.1467 60.8882 68.1471 63.8886 71.8483 63.8886Z" fill="#006BB7"/>
<path d="M90.3894 76.3982H102.899L104.686 78.8555L98.2079 90.2482H95.0805L88.6023 78.8555L90.3894 76.3982Z" fill="#006BB7"/>
<path fill-rule="evenodd" clip-rule="evenodd" d="M37 1.34032C42.3115 3.01764 46.6535 4.5584 50.5041 5.92479C60.0032 9.29557 66.512 11.6052 77.2096 12.2863C86.9945 12.9092 111.784 11.51 121.887 10.2758C132.642 8.96188 140.323 6.7096 151.233 3.51068C154.865 2.44551 158.856 1.27539 163.437 0L157.182 25.4661L141.464 29.3956C151.718 37.0071 158.076 47.8716 158.076 61.6547C158.076 80.1329 147.584 92.7323 131.033 100.086C148.297 108.615 160.309 126.413 160.309 146.988C160.309 175.858 139.088 195.051 108.037 199.261C81.7192 202.829 59.187 193.26 43.9974 175.221C50.936 173.283 57.5032 163.893 57.1048 155.924C57.1048 155.077 57.0224 154.249 56.8648 153.446L56.8814 153.467C71.6249 174.688 83.274 178.039 99.1015 178.039C120.692 178.039 133.95 163.361 133.95 144.978C133.95 126.595 119.206 112.363 95.7507 112.363C83.8568 112.363 70.8984 116.683 61.6581 123.635C61.8612 123.226 62.0695 122.819 62.2829 122.416C62.9657 119.835 63.906 115.899 64.8068 112.128L64.8071 112.126L64.8071 112.126L64.8072 112.126C65.5445 109.039 66.2553 106.064 66.7768 104.033C48.1014 96.2055 37 82.3717 37 61.6547C37 49.4683 40.3749 36.8119 50.2008 28.3875L42.5847 27.2532L37 1.34032ZM97.9846 92.9288C122.289 92.9288 141.992 79.427 141.992 62.7716C141.992 46.1163 122.289 32.6145 97.9846 32.6145C73.6801 32.6145 53.9774 46.1163 53.9774 62.7716C53.9774 79.427 73.6801 92.9288 97.9846 92.9288Z" fill="#006BB7"/>
</svg>
