<svg width="1080" height="1080" viewBox="0 0 1080 1080" fill="none" xmlns="http://www.w3.org/2000/svg">
<path d="M937.017 874.522C937.017 874.522 1065.13 758.689 1006.76 607.522C948.369 456.354 842.692 687.079 769.036 473.715C695.361 260.339 678.869 96.9949 482.772 164.376C286.675 231.756 367.059 408.577 264.427 426.332C161.795 444.088 80.7036 508.132 127.74 646.6C174.776 785.068 58 876 58 876L937.017 874.522Z" fill="#E5F0FB"/>
<path d="M116.715 875.709C116.715 875.709 121.049 864.513 176.307 861.501C231.576 858.489 282.967 834.335 374.102 837.837C465.248 841.339 540.871 863.342 644.614 856.598C748.357 849.854 813.326 858.449 836.596 865.223C859.866 871.997 956.177 863.632 963.285 876.049L116.715 875.709Z" fill="#0A74C0"/>
<path d="M589.73 561.322L615.005 858.259C615.005 858.259 617.658 876.26 604.099 876.29C581.821 876.34 493.207 876.29 493.207 876.29C493.207 876.29 509.976 872.547 509.773 864.112C509.53 854.176 480.235 558.511 480.235 558.511L589.73 561.322Z" fill="#0A74C0"/>
<path d="M486.017 870.906C490.402 870.916 575.027 871.177 596.727 870.906C606.185 870.786 607.836 862.601 607.917 857.298C607.957 854.757 607.633 852.876 607.633 852.876L606.975 845.161L605.304 825.489L603.825 808.109L601.922 785.776L600.322 766.925L582.358 555.929L472.863 553.118C472.863 553.118 485.207 676.851 493.936 766.925C494.908 776.961 495.84 786.586 496.69 795.562C496.964 798.433 497.237 801.235 497.49 803.967C498.3 812.492 499.04 820.316 499.688 827.22C500.022 830.863 500.336 834.245 500.619 837.347C501.733 849.494 502.381 857.248 502.391 858.729C502.391 859.59 502.32 860.39 502.179 861.131C500.396 870.596 487.668 870.906 486.017 870.906Z" fill="#48ADF5"/>
<path d="M329.962 399.736H855.634L794.066 644.082L785.641 677.541L756.964 791.349H224.285L329.962 399.736Z" fill="#7FC6F8"/>
<path d="M855.634 399.736L864.16 402.548L768.305 799.854L756.964 791.349L855.634 399.736Z" fill="#0A74C0"/>
<path d="M768.305 799.854H238.908L224.285 791.349H756.964L768.305 799.854Z" fill="#0A74C0"/>
<path d="M582.398 871.016H467.77V876.4H582.398V871.016Z" fill="#0A74C0"/>
<path d="M496.913 799.854L497.5 803.967L606.742 825.77L605.952 808.059L603.744 797.843L496.913 799.854Z" fill="#0A74C0"/>
<path d="M485.582 871.027C489.966 871.037 575.037 871.177 596.727 870.896C606.185 870.776 607.835 862.592 607.917 857.288L500.629 837.346C501.743 849.494 502.391 857.248 502.401 858.729C502.401 859.59 502.331 860.39 502.189 861.131C500.396 870.596 487.232 871.027 485.582 871.027Z" fill="#7FC6F8"/>
<path opacity="0.2" d="M529.894 714.423L756.964 791.349L776.356 714.373L529.894 714.423Z" fill="#7FC6F8"/>
<path d="M329.962 399.736H855.634L776.406 714.373L245.024 714.473L329.962 399.736Z" fill="#0A74C0"/>
<path d="M476.498 754.257C478.017 746.542 485.582 740.279 493.389 740.279C501.196 740.279 506.3 746.532 504.781 754.257C503.262 761.972 495.698 768.235 487.89 768.235C480.083 768.235 474.98 761.982 476.498 754.257Z" fill="#0A74C0"/>
<path d="M269.468 700.835H761.652L817.387 481.425L821.66 464.605L825.306 450.246L833.852 416.596H348.767L339.38 450.246L335.37 464.605L330.681 481.425L269.468 700.835Z" fill="white"/>
<path fill-rule="evenodd" clip-rule="evenodd" d="M413.777 558.871C421.088 560.482 428.683 554.438 428.824 546.914C428.916 542.351 425.928 538.519 421.534 537.528C414.283 535.907 406.689 541.941 406.486 549.485C406.375 554.048 409.362 557.89 413.777 558.871ZM412.997 548.365C416.045 549.005 419.194 546.494 419.306 543.352C419.377 541.391 418.081 539.72 416.187 539.319C413.149 538.679 410 541.18 409.878 544.332C409.807 546.293 411.093 547.964 412.997 548.365Z" fill="#1673BA"/>
<path fill-rule="evenodd" clip-rule="evenodd" d="M388.542 558.211C395.843 559.821 403.489 553.768 403.691 546.223C403.813 541.651 400.866 537.798 396.471 536.818C389.231 535.187 381.576 541.24 381.322 548.805C381.17 553.388 384.127 557.23 388.542 558.211ZM387.59 547.354C390.628 547.994 393.808 545.483 393.94 542.331C394.021 540.37 392.745 538.689 390.851 538.289C387.823 537.648 384.644 540.16 384.502 543.312C384.411 545.273 385.697 546.954 387.59 547.354Z" fill="#1673BA"/>
<path d="M399.479 556.74L408.157 557.18L409.078 558.931L403.084 566.555L400.906 566.445L397.919 558.361L399.479 556.74Z" fill="#1673BA"/>
<path fill-rule="evenodd" clip-rule="evenodd" d="M373.019 502.898C376.411 504.268 379.155 505.499 381.596 506.6C387.621 509.301 391.752 511.143 398.983 512.023C405.595 512.834 422.739 512.824 429.807 512.363C437.33 511.873 442.859 510.622 450.707 508.851C453.32 508.261 456.185 507.61 459.466 506.92L452.074 524.15L440.804 526.252C446.9 531.865 449.948 539.559 448.257 549.015C445.988 561.693 437.148 569.977 424.693 574.46C435.68 580.904 441.897 593.521 439.386 607.64C435.862 627.442 418.415 639.989 395.762 641.97C376.533 643.661 361.779 636.397 353.485 623.469C358.67 622.339 364.624 616.045 365.434 610.532C365.556 609.951 365.607 609.371 365.607 608.811L365.617 608.821C373.14 623.94 380.948 626.601 392.178 627.081C407.489 627.732 418.749 618.046 421.068 605.409C423.387 592.771 414.871 582.495 398.466 581.714C390.152 581.314 380.502 583.866 373.08 588.358C373.282 588.078 373.485 587.808 373.687 587.538C374.518 585.777 375.713 583.085 376.867 580.514C377.809 578.403 378.71 576.371 379.348 574.99C367.399 568.947 361.617 558.991 364.533 544.642C366.255 536.207 370.356 527.572 378.285 522.109L373.211 521.038L373.019 502.898ZM402.567 568.397C419.488 569.237 434.9 560.642 436.976 549.195C439.062 537.748 427.204 527.742 410.506 526.832C393.808 525.921 378.396 534.516 376.087 546.033C373.789 557.55 385.646 567.566 402.567 568.397Z" fill="#1673BA"/>
<path d="M669.484 649.975C668.127 650.625 667.519 649.485 666.699 649.004C651.672 640.049 636.766 631.014 621.881 622.048C619.734 620.748 618.934 619.277 618.964 616.685C619.177 598.815 619.167 580.944 619.268 563.063C619.308 556.429 619.359 549.796 619.4 543.162C619.41 541.731 619.734 540.77 621.496 540.3C634.265 536.848 646.983 533.336 659.651 529.784C666.335 527.912 672.967 525.861 679.62 523.94C680.957 523.55 682.354 522.699 683.711 523.75C682.445 524.54 682.709 525.821 682.557 526.942C682.111 530.434 681.726 533.936 681.321 537.438C679.478 539.249 678.466 541.551 677.21 543.712C667.651 560.072 658.031 576.471 648.33 592.901C643.368 601.256 638.406 609.631 633.141 618.476C637.434 618.666 641.262 618.726 645.029 619.057C647.115 619.237 648.117 618.526 649.069 616.745C651.682 611.812 654.517 606.99 657.251 602.127C663.064 601.086 668.714 602.347 674.456 602.357C672.795 618.226 671.134 634.106 669.484 649.975ZM633.769 619.177C633.759 619.277 633.748 619.377 633.738 619.477C637.89 619.667 642.042 619.847 646.194 620.037C646.204 619.937 646.214 619.837 646.224 619.737C642.062 619.557 637.91 619.367 633.769 619.177Z" fill="#E40A32"/>
<path d="M681.321 537.418C681.726 533.916 682.111 530.424 682.557 526.922C682.699 525.801 682.445 524.531 683.711 523.73C691.924 527.102 700.156 530.434 708.379 533.826C715.578 536.788 722.778 539.8 729.968 542.831C732.884 544.062 735.618 545.763 738.646 546.624C740.975 547.284 741.046 548.525 740.691 550.226C737.623 564.864 734.494 579.503 731.385 594.152C729.421 603.387 727.487 612.623 725.553 621.868C725.239 623.379 725.158 624.88 723.335 625.701C705.472 633.745 687.529 641.85 669.484 649.975C671.145 634.096 672.795 618.216 674.456 602.337L674.476 602.317C679.671 602.237 684.774 603.457 690.03 602.487C692.106 605.359 692.45 608.871 693.523 612.093C696.602 621.318 696.531 621.348 706.87 621.788C709.179 621.888 710.465 620.297 709.715 618.266C700.035 591.39 690.577 564.444 681.321 537.418ZM697.28 621.878L697.189 622.369L710.404 622.959C701.938 622.269 705.736 622.579 697.28 621.878Z" fill="#D51331"/>
<path d="M679.023 567.636C678.992 566.966 679.175 566.195 678.182 565.995C676.957 565.735 676.805 566.726 676.42 567.416C672.694 574.15 668.967 580.894 665.2 587.638C664.39 589.089 663.995 590.029 667.55 589.779C672.744 589.409 677.939 589.719 683.023 590.52C687.336 591.2 686.597 589.889 685.676 588.448C683.691 581.434 681.625 574.45 679.023 567.636Z" fill="#FFFDFD"/>
<path d="M657.251 602.117C657.444 600.366 658.77 600.876 659.763 600.926C664.684 601.166 669.605 601.446 674.527 601.716C674.507 601.917 674.486 602.117 674.476 602.317L674.456 602.337C668.714 602.337 663.064 601.076 657.251 602.117Z" fill="#E40825"/>
<path d="M633.769 619.177C637.92 619.367 642.072 619.547 646.214 619.737C646.204 619.837 646.194 619.937 646.183 620.037C642.032 619.847 637.88 619.667 633.728 619.477C633.738 619.377 633.749 619.277 633.769 619.177Z" fill="#E40827"/>
<path d="M674.476 602.317C674.486 602.117 674.506 601.916 674.527 601.716C679.691 601.977 684.855 602.237 690.02 602.487C684.774 603.457 679.671 602.237 674.476 602.317Z" fill="#D51222"/>
<path d="M697.28 621.878C705.736 622.579 701.948 622.269 710.404 622.969L697.189 622.379L697.28 621.878Z" fill="#D31325"/>
<path d="M685.676 588.448C686.607 589.889 687.336 591.2 683.023 590.52C677.939 589.719 672.755 589.409 667.55 589.779C664.006 590.029 664.39 589.099 665.2 587.638C668.957 580.894 672.684 574.15 676.42 567.416C676.805 566.726 676.957 565.745 678.182 565.995C679.175 566.205 678.992 566.966 679.023 567.636C677.696 568.427 677.98 569.727 677.848 570.848C677.281 575.791 676.704 580.734 676.289 585.687C676.177 587.028 674.932 589.389 677.271 589.459C680.015 589.549 683.154 591.62 685.676 588.448Z" fill="#E41036"/>
<path d="M685.676 588.449C683.154 591.62 680.015 589.559 677.281 589.459C674.942 589.379 676.187 587.018 676.299 585.687C676.714 580.734 677.291 575.791 677.858 570.848C677.99 569.727 677.696 568.427 679.033 567.636C681.625 574.45 683.691 581.434 685.676 588.449Z" fill="#D51531"/>
<path d="M531.595 610.572C531.423 612.633 530.876 614.164 529.934 615.154C528.993 616.145 527.96 616.615 526.816 616.565C523.687 616.425 521.58 615.675 520.497 614.314C519.413 612.953 518.684 611.222 518.289 609.131C518.006 605.389 517.905 601.436 517.975 597.294C518.046 593.151 518.259 589.079 518.593 585.076C513.125 585.507 508.163 585.927 503.687 586.327C499.212 586.737 496.174 587.048 494.584 587.248C492.113 587.548 489.825 586.988 487.718 585.567C485.612 584.146 484.579 582.395 484.64 580.314C484.964 578.382 486.382 576.852 488.913 575.731C491.435 574.6 493.733 573.75 495.819 573.159C498.594 572.599 502.148 572.119 506.462 571.709C510.776 571.298 515.424 570.948 520.426 570.638C521.509 562.803 522.755 555.909 524.173 549.956C525.59 544.002 526.805 540.02 527.818 537.999C528.861 534.867 530.451 533.196 532.588 532.966C534.714 532.735 536.213 532.996 537.084 533.726C538.066 534.606 538.916 535.657 539.645 536.878C540.375 538.099 540.608 539.039 540.375 539.72C539.028 544.903 537.944 549.996 537.114 554.999C536.284 560.002 535.555 565.045 534.927 570.128C539.878 570.098 544.678 570.138 549.326 570.228C553.974 570.328 558.166 570.608 561.913 571.068C566.358 571.568 568.11 573.65 567.169 577.322C566.794 578.953 565.579 580.304 563.513 581.374C561.447 582.445 559.209 582.995 556.799 583.005C553.518 583.125 549.883 583.255 545.893 583.405C541.904 583.556 537.681 583.806 533.226 584.136C532.841 588.539 532.537 592.941 532.294 597.354C532.061 601.756 531.828 606.169 531.595 610.572Z" fill="#709AD1"/>
<path d="M348.767 416.596H833.852L825.306 450.246H339.38L348.767 416.596Z" fill="#B2CBEC"/>
<path d="M810.592 427.593C812.942 427.593 814.369 429.474 813.792 431.795C813.205 434.117 810.825 435.998 808.476 435.998C806.127 435.998 804.699 434.117 805.276 431.795C805.863 429.484 808.243 427.593 810.592 427.593Z" fill="#E9F2FC"/>
<path d="M796.446 427.593C798.796 427.593 800.223 429.474 799.646 431.795C799.059 434.117 796.679 435.998 794.33 435.998C791.981 435.998 790.553 434.117 791.13 431.795C791.717 429.484 794.097 427.593 796.446 427.593Z" fill="#E9F2FC"/>
<path d="M775.9 431.805C776.487 429.484 778.867 427.603 781.216 427.603C783.566 427.603 784.993 429.484 784.416 431.805C783.829 434.127 781.449 436.008 779.1 436.008C776.741 436.008 775.313 434.127 775.9 431.805Z" fill="#E9F2FC"/>
<path d="M161.685 838.217L166.809 859.54L174.485 859.5L174.768 838.217H161.685Z" fill="#864517"/>
<path d="M226.24 839.128L240.811 859.54L246.502 852.335L237.723 836.326L226.24 839.128Z" fill="#864517"/>
<path d="M188.337 558.04C185.684 556.55 182.515 556.389 180.297 556.52C180.864 555.939 181.998 555.719 181.998 555.719C180.621 555.519 177.543 556.87 177.543 556.87C158.384 549.575 155.376 577.442 155.781 583.916C156.176 590.39 149.341 592.501 139.377 597.604C120.36 607.34 118.689 620.367 118.689 620.367C118.841 620.458 118.993 620.548 119.155 620.668C120.097 619.087 122.041 616.125 123.681 615.675C123.621 615.815 121.747 619.757 121.049 622.018C126.659 626.231 137.149 635.577 144.46 642.2C144.43 640.91 144.481 639.069 144.957 638.098L145.858 643.471C149.767 647.023 152.47 649.525 152.47 649.525C151.984 644.292 176.419 616.685 189.168 608.41C192.266 603.898 193.37 595.923 193.451 595.293C192.914 601.616 191.821 605.158 190.838 607.16C201.643 597.354 195.365 561.983 188.337 558.04Z" fill="#19365E"/>
<path d="M188.418 608.831C188.479 608.861 182.262 612.053 177.583 610.782C173.188 609.601 170.313 603.958 170.373 603.948C172.237 603.577 172.773 601.056 172.733 590.18L173.573 590.34L187.74 593.111C187.74 593.111 187.416 597.514 187.406 601.666C187.396 605.158 187.608 608.46 188.418 608.831Z" fill="#864517"/>
<path d="M172.399 562.603C172.399 562.603 179.386 555.259 188.155 562.223C188.155 562.223 183.051 561.352 172.399 562.603Z" fill="#814716"/>
<path d="M187.74 593.121C187.74 593.121 187.416 597.524 187.406 601.676C179.477 601.456 175.295 594.312 173.573 590.35L187.74 593.121Z" fill="#A05828"/>
<path d="M172.115 588.829C172.115 588.829 167.963 582.345 166.961 576.802C166.252 572.839 168.287 558.171 183.213 560.282C183.213 560.282 187.547 560.702 191.618 563.424C194.858 565.585 199.537 570.258 194.302 583.055L192.945 587.378L172.115 588.829Z" fill="#19365E"/>
<path d="M244.183 846.742L236.68 846.972L228.558 847.222C228.558 847.222 209.795 826.57 199.263 793.47C199.02 792.7 198.757 791.919 198.484 791.139C192.722 774.539 180.773 753.697 174.485 734.835C173.482 731.834 172.581 729.002 171.781 726.33C171.518 725.47 171.275 724.629 171.031 723.799C166.394 707.869 165.047 697.413 163.812 686.247L209.268 686.607C209.248 686.597 216.589 762.882 244.183 846.742Z" fill="#2C488C"/>
<path d="M202.889 660.782C202.777 682.154 206.058 691.32 206.058 691.32C206.058 691.32 186.595 701.085 163.467 693.901C163.194 693.821 144.319 689.559 144.319 689.559C144.703 688.698 148.146 674.29 148.521 673.499C153.402 663.133 157.108 658.59 157.695 655.408C158.769 649.465 158.789 643.311 158.262 637.498C156.855 622.129 152.652 609.381 152.652 609.381C158.951 607.96 164.855 605.479 171.416 603.047C172.925 604.908 177.543 606.849 181.543 606.759C186.15 606.659 187.649 604.708 187.406 602.587C192.317 605.289 196.236 607.84 196.236 607.84C200.408 615.004 208.873 621.958 209.481 632.945C209.622 635.637 202.889 660.191 202.889 660.782Z" fill="#E8F1FB"/>
<path d="M229.278 629.033C222.604 621.328 205.319 604.628 187.477 602.577L202.868 632.214C202.868 632.214 203.729 637.298 208.296 640.249C219.465 647.504 233.662 650.706 233.662 650.706C233.662 650.706 243.272 646.563 256.416 637.047C260.537 634.056 267.787 622.669 267.787 622.669L265.833 616.205C265.833 616.205 253.53 623.009 249.125 624.97C246.624 626.091 240.852 628.752 236.791 630.644C234.209 631.834 231.131 631.174 229.278 629.033Z" fill="#7FC6F8"/>
<path d="M190.383 597.054C190.383 597.054 171.629 597.364 171.619 585.817C171.609 574.28 169.178 566.545 181.148 565.855C193.117 565.175 195.446 569.577 196.398 573.42C197.36 577.272 195.264 596.673 190.383 597.054Z" fill="#864517"/>
<path d="M189.694 565.575C189.694 565.575 184.56 579.113 176.682 581.114C168.804 583.115 165.381 581.034 165.381 581.034C165.381 581.034 168.814 575.631 170.07 567.346C170.07 567.346 185.816 559.131 189.694 565.575Z" fill="#19365E"/>
<path d="M188.418 566.676C188.418 566.676 192.256 569.697 193.188 572.639C194.119 575.581 194.545 581.624 196.327 581.424C196.327 581.424 200.195 572.219 195.851 567.016C191.243 561.492 188.418 566.676 188.418 566.676Z" fill="#19365E"/>
<path d="M265.833 616.205C265.833 616.205 268.476 606.789 278.946 608.12C280.151 608.49 283.665 609.871 281.417 613.593C279.767 616.335 279.048 614.914 276.445 618.596C273.843 622.279 271.018 623.109 267.787 622.669L265.833 616.205Z" fill="#864517"/>
<path d="M166.556 858.349C166.556 858.349 167.173 862.571 165.584 867.094C165.584 867.094 164.328 872.748 169.968 872.858C175.609 872.968 176.986 872.437 176.348 868.965C175.71 865.493 174.495 859.5 174.495 859.5L166.556 858.349Z" fill="#864517"/>
<path d="M176.874 875.269C176.874 875.269 176.753 875.339 176.52 875.459H165.482C165.27 875.349 165.169 875.269 165.169 875.269C164.531 872.427 165.574 867.094 165.574 867.094C171.953 872.878 175.953 866.954 175.953 866.954C176.986 869.416 176.874 875.269 176.874 875.269Z" fill="#814716"/>
<path d="M260.081 869.526C260.081 869.526 249.692 858.129 246.502 852.325L238.776 856.238L256.051 872.267L260.092 871.737L260.081 869.526Z" fill="#864517"/>
<path d="M266.522 875.449H252.304C250.937 874.438 249.651 872.097 248.062 868.955C247.211 867.284 245.307 866.354 243.353 865.853V875.349H240.406L237.611 865.263C235.778 861.921 237.47 858.889 238.766 856.258C240.275 856.258 244.325 857.268 252.001 865.823C254.522 868.625 257.307 869.636 260.081 869.546C260.122 869.566 260.162 869.596 260.193 869.606C264.82 871.647 266.147 874.208 266.522 875.449Z" fill="#814716"/>
<path d="M187.396 602.577C187.396 602.577 198.241 629.063 198.565 634.416C198.889 639.779 199.841 722.058 199.841 722.058C199.841 722.058 199.203 725.84 206.544 724.269C213.886 722.688 215.8 721.117 215.8 721.117C215.8 721.117 208.782 670.367 210.696 652.707C212.61 635.056 196.023 606.259 196.023 606.259L187.396 602.577Z" fill="#7FC6F8"/>
<path d="M236.68 846.962L228.558 847.212C228.558 847.212 209.795 826.56 199.263 793.46C199.02 792.69 198.757 791.909 198.484 791.129C192.722 774.529 180.773 753.687 174.485 734.826C173.482 731.824 172.581 728.992 171.781 726.32C171.518 725.46 171.275 724.619 171.031 723.789L177.725 718.766C177.725 718.766 197.825 750.925 204.043 781.183C209.43 807.469 231.08 839.098 236.68 846.962Z" fill="#243862"/>
<path d="M178.414 784.005C178.525 798.724 177.776 832.554 175.831 846.562H168.632C164.652 846.562 162.667 846.502 162.667 846.502C157.807 822.147 154.344 801.995 151.822 784.635C149.756 770.387 147.913 758.169 146.506 747.653C145.078 737.067 144.096 728.212 143.741 720.717C143.691 719.536 143.65 718.386 143.62 717.275C143.6 716.154 143.59 715.064 143.6 714.013L182.879 710.241C182.383 736.016 178.343 775.45 178.414 784.005Z" fill="#2C488C"/>
<path d="M168.632 846.562C164.652 846.562 162.667 846.502 162.667 846.502C157.807 822.147 154.344 801.995 151.822 784.635C149.756 770.387 147.913 758.169 146.506 747.653C145.078 737.067 144.096 728.212 143.741 720.717L158.151 729.092C158.151 729.092 148.956 732.294 152.46 756.568C155.974 780.853 163.751 843.12 168.632 846.562Z" fill="#243862"/>
<path d="M170.485 720.487C170.485 720.487 167.72 730.363 158.151 729.102C148.582 727.841 134.972 722.168 134.972 722.168C134.972 722.168 139.063 709.4 144.147 692.62C150.303 672.308 157.928 646.123 161.523 629.613C162.536 624.98 163.224 621.118 163.477 618.356L171.416 603.137C171.416 603.137 183.254 629.393 183.892 636.017C184.53 642.621 170.485 720.487 170.485 720.487Z" fill="#7FC6F8"/>
<path d="M160.936 635.006L171.416 603.117C171.386 603.127 158.181 607 151.539 610.322C151.539 610.322 147.387 615.615 144.815 627.822C144.815 627.822 142.101 657.129 148.167 667.846C148.167 667.846 167.305 671.628 197.937 661.222V654.288C197.937 654.288 164.439 656.019 157.574 656.809L160.936 635.006Z" fill="#864517"/>
<path d="M170.059 649.865C169.634 660.581 167.082 681.394 144.319 692.53C144.258 692.56 144.197 692.59 144.136 692.61C150.293 672.298 157.918 646.113 161.513 629.603C165.695 635.777 170.292 643.962 170.059 649.865Z" fill="#0A74C0"/>
<path d="M171.416 603.117C171.416 603.117 151.984 604.468 147.306 614.764C142.628 625.06 141.139 659.321 147.093 669.407C147.093 669.407 155.295 671.718 169.796 669.036C169.978 669.006 170.151 668.966 170.333 668.936C170.333 668.936 174.961 657.75 170.809 655.538C170.809 655.538 158.576 656.169 159.852 652.176C161.128 648.184 171.416 603.117 171.416 603.117Z" fill="#7FC6F8"/>
<path d="M194.494 656.129C194.494 656.129 197.167 652.937 197.734 649.675C198.301 646.413 200.073 643.992 204.671 643.391C209.278 642.791 211.253 642.731 211.243 644.012C211.233 645.292 207.476 654.248 200.873 659.601C194.261 664.944 194.494 656.129 194.494 656.129Z" fill="#864517"/>
<path d="M272.344 617.746C272.506 617.746 272.658 617.706 272.8 617.616L395.661 543.792C396.076 543.542 396.208 543.001 395.955 542.591C395.702 542.181 395.155 542.051 394.74 542.301L271.878 616.125C271.463 616.375 271.332 616.915 271.585 617.326C271.757 617.596 272.041 617.746 272.344 617.746Z" fill="#19365E"/>
<path d="M818.349 704.397C818.349 704.397 817.367 713.883 816.283 715.674C815.2 717.465 810.582 723.199 808.618 724.329C806.653 725.45 809.813 716.775 809.418 715.084C809.013 713.393 807.798 718.166 806.937 718.276C806.066 718.386 806.299 714.093 806.258 712.532C806.228 710.971 810.471 707.109 811.97 703.787C813.468 700.465 818.349 704.397 818.349 704.397Z" fill="#F7B17F"/>
<path d="M700.419 616.905L698.212 612.793C698.212 612.793 699.306 605.459 690.01 600.826C690.01 600.826 686.617 599.455 684.693 602.197C682.931 604.718 688.055 604.258 687.782 608.58C687.509 612.893 689.574 615.425 692.46 616.825L694.84 619.557L700.419 616.905Z" fill="#F7B17F"/>
<path d="M788.254 607.08C788.254 607.08 780.275 645.793 736.347 658.44C722.636 662.392 691.488 617.786 691.488 617.786C691.488 617.786 692.582 613.674 699.447 614.614C699.447 614.614 729.775 634.456 733.593 636.607C736.985 638.518 759.263 612.023 769.419 607.75C779.576 603.477 788.254 607.08 788.254 607.08Z" fill="#E68738"/>
<path d="M840.688 850.414C840.688 850.414 846.136 855.327 845.072 858.819C844.009 862.311 839.088 864.643 838.43 868.905C837.761 873.168 835.108 875.499 832.719 875.499C830.329 875.499 821.316 875.499 821.316 875.499C821.316 875.499 819.554 872.497 823.807 871.587C828.06 870.686 829.66 865.663 829.397 861.011C829.134 856.358 829.792 850.144 829.792 850.144L838.825 848.073L840.688 850.414Z" fill="#243862"/>
<path d="M773.845 863.122C773.845 863.122 774.827 874.308 772.427 875.469L741.815 875.409C741.815 875.409 741.815 871.917 746.737 871.147C751.658 870.366 760.296 867.524 761.754 861.191C763.212 854.847 773.845 863.122 773.845 863.122Z" fill="#243862"/>
<path d="M747.992 705.158C747.992 705.158 749.603 724.76 751.506 748.324C754.088 780.333 757.187 819.646 757.491 827.09C758.017 840.028 760.154 860.71 760.154 860.71C760.154 860.71 765.197 865.623 775.303 863.552C775.303 863.552 784.305 834.025 786.877 802.776C786.918 802.266 786.958 801.745 786.999 801.235C789.388 769.426 793.115 702.446 793.115 702.446L747.992 705.158Z" fill="#2C488C"/>
<path d="M747.992 705.158C747.992 705.158 749.603 724.76 751.506 748.324L786.877 802.776C786.918 802.266 786.958 801.745 786.999 801.235C789.388 769.426 793.115 702.446 793.115 702.446L747.992 705.158Z" fill="#243862"/>
<path d="M755.375 707.489C755.375 707.489 784.477 778.481 803.616 811.841C822.754 845.201 828.739 854.517 828.739 854.517C828.739 854.517 839.705 850.254 840.698 847.342C840.698 847.342 833.377 782.934 820.567 767.235C813.327 758.359 804.821 731.744 804.416 722.428C804.021 713.123 801.823 694.692 801.823 694.692L755.375 707.489Z" fill="#2C488C"/>
<path d="M793.661 598.094C793.661 598.094 773.966 607.48 762.615 603.998C762.615 603.998 765.409 600.516 770.3 597.924C769.905 595.673 769.602 593.722 769.429 592.061C768.954 588.238 768.954 586.067 768.954 586.067L776.548 580.164L783.758 574.51C783.181 590.4 793.661 598.094 793.661 598.094Z" fill="#F7B17F"/>
<path d="M804.041 698.324C804.081 699.515 801.509 700.875 800.375 701.386C791.95 705.038 784.092 707.589 775.181 708.44C764.66 709.5 752.215 707.169 747.932 707.249C747.496 707.249 747.101 707.079 746.757 706.779C746.453 706.569 746.23 694.031 746.453 678.272C746.453 677.632 746.453 677.001 746.494 676.361V676.151C746.585 669.987 746.797 663.533 747.101 657.079C747.709 642.891 748.843 629.213 750.767 621.648C753.086 612.723 758.321 606.819 763.08 602.527L767.009 599.125C770.938 599.885 775.09 599.675 779.232 597.684C783.768 595.513 788.659 593.181 789.449 593.772C795.383 598.064 799.403 607.71 801.54 620.027C802.765 627.121 803.373 635.066 803.332 643.391C803.332 646.453 803.241 649.595 803.069 652.697C802.026 669.517 803.069 684.135 803.676 692.59C803.869 695.052 804 696.963 804.041 698.324Z" fill="#EF9A4B"/>
<path d="M803.696 697.553C734.737 697.413 790.978 623.609 790.978 623.609L802.147 620.027C803.028 627.612 803.474 636.097 803.443 644.992C803.443 648.264 803.383 651.616 803.251 654.928C802.491 672.909 803.251 688.518 803.696 697.553Z" fill="#E68738"/>
<path d="M783.88 580.584C783.88 580.584 778.898 589.549 769.43 592.051C768.954 588.228 768.954 586.057 768.954 586.057L776.548 580.154L783.88 580.584Z" fill="#EE9960"/>
<path d="M765.48 585.807C765.48 585.807 784.264 588.839 786.026 577.432C787.788 566.015 791.403 558.731 779.485 556.309C767.566 553.888 764.559 557.9 763.02 561.573C761.48 565.235 760.64 584.726 765.48 585.807Z" fill="#F7B17F"/>
<path d="M792.861 554.939C793.034 554.748 793.429 554.588 794.299 554.538C794.299 554.538 793.601 554.108 792.669 554.078C792.487 552.877 791.839 550.746 789.743 550.226C789.743 550.226 790.867 550.816 791.018 552.097C788.588 549.635 783.393 547.844 768.994 548.965C750.017 550.446 756.276 562.453 758.726 563.884C761.187 565.315 767.364 561.392 771.941 561.753C776.518 562.113 777.389 568.647 778.938 569.547C780.487 570.448 779.88 568.857 781.976 567.916C784.072 566.976 784.274 570.418 783.667 572.649C783.059 574.88 785.945 577.832 785.945 577.832C785.945 577.832 785.945 577.832 788.862 574.73C791.778 571.629 794.532 558.481 793.206 555.679C793.094 555.439 792.983 555.189 792.861 554.939Z" fill="#2D3A64"/>
<path d="M789.449 593.682C789.449 593.682 801.337 599.245 807.038 607.79C815.878 621.048 826.126 669.387 826.318 673.869C826.511 678.342 818.835 709.941 818.835 709.941C818.835 709.941 811.058 709.43 809.053 705.558C809.053 705.558 810.603 673.089 809.62 671.008C808.638 668.916 777.196 627.452 780.73 618.606C784.264 609.751 789.449 593.682 789.449 593.682Z" fill="#EF9A4B"/>
<path d="M698.171 612.603C698.171 612.603 698.819 610.081 697.047 608.951C695.275 607.82 693.645 604.728 692.896 605.148C691.346 606.009 693.746 608.701 693.301 612.063C693.159 613.233 695.923 616.315 698.171 612.603Z" fill="#F7B17F"/>
<path d="M0.961989 877H1079.04C1079.56 877 1080 876.57 1080 876.049C1080 875.529 1079.56 875.099 1079.04 875.099H0.961989C0.435427 875.099 0 875.529 0 876.049C0 876.58 0.435427 877 0.961989 877Z" fill="#0A74C0"/>
</svg>
