<svg width="1080" height="1080" viewBox="0 0 1080 1080" fill="none" xmlns="http://www.w3.org/2000/svg">
<path d="M41.5211 877.735C41.5211 877.735 35.8336 776.218 117.351 643.554C198.868 510.889 126.031 464.339 120.734 309.935C115.436 155.531 362.064 173.445 411.543 252.286C509.802 408.859 653.182 290.227 750.925 293.344C909.442 298.414 1031.37 345.695 925.84 567.454C872.439 679.669 1148.11 666.401 999.766 877.735H41.5211Z" fill="#B3D4F5"/>
<path d="M1078.51 878.637H1.48762C0.67515 878.637 0 878.191 0 877.637C0 877.091 0.663707 876.638 1.48762 876.638H1078.51C1079.32 876.638 1080 877.084 1080 877.637C1080 878.191 1079.32 878.637 1078.51 878.637Z" fill="#006CB5"/>
<path d="M744.846 502.399L757.128 501.061C758.152 500.961 759.142 501.44 759.704 502.287C760.413 503.379 761.166 504.461 761.976 505.508C763.483 507.459 765.092 509.265 766.824 510.903C767.634 511.672 767.903 512.831 767.476 513.846L762.73 525.739C762.212 526.998 762.775 528.458 764.023 529.072L774.584 534.288C775.788 534.879 777.228 534.477 777.947 533.374L784.37 523.465C784.977 522.484 786.169 522.038 787.316 522.339C792.175 523.621 797.225 524.134 802.287 523.855C803.513 523.788 804.637 524.58 804.997 525.728L807.146 532.571C807.562 533.864 808.9 534.678 810.261 534.411L821.756 532.137C821.992 532.092 822.217 532.025 822.42 531.925C823.421 531.457 824.028 530.387 823.893 529.261L822.892 520.166L822.645 517.948C824.557 516.889 826.435 515.674 828.223 514.314C830.63 512.486 832.835 510.48 834.78 508.339C835.523 507.526 836.693 507.236 837.716 507.648L847.389 511.449C848.716 511.962 850.212 511.394 850.83 510.134L854.857 502.131L856.004 499.835C856.634 498.587 856.218 497.048 855.037 496.302L846.68 490.974C845.702 490.372 845.229 489.213 845.51 488.131C846.298 484.866 846.748 481.522 846.815 478.178C846.849 477.888 846.838 477.62 846.838 477.331C846.826 477.23 846.849 477.141 846.86 477.052C846.973 475.982 847.726 475.09 848.761 474.767L859.963 471.289C860.087 471.256 860.211 471.2 860.323 471.144C861.414 470.621 862.044 469.406 861.808 468.213L859.547 456.855C859.277 455.484 857.995 454.548 856.578 454.693L843.778 456.086C842.687 456.22 841.653 455.662 841.135 454.704C839.988 452.619 838.661 450.58 837.142 448.618C836.344 447.581 835.5 446.578 834.634 445.62C833.937 444.839 833.723 443.736 834.117 442.766L838.672 431.33C839.178 430.071 838.627 428.633 837.39 428.02L826.93 422.87C825.67 422.246 824.129 422.647 823.353 423.84L818.269 431.676C817.583 432.723 816.29 433.169 815.097 432.779C810.452 431.174 805.582 430.305 800.667 430.171C799.509 430.16 798.474 429.391 798.125 428.276L794.965 418.267C794.537 416.929 793.165 416.115 791.77 416.383L780.354 418.612C778.982 418.88 778.049 420.15 778.206 421.51L778.262 422.045L779.421 432.601C779.545 433.738 778.96 434.797 777.936 435.32L777.925 435.332C775.473 436.58 773.1 438.051 770.828 439.768C769.613 440.682 768.477 441.64 767.364 442.655C766.599 443.368 765.508 443.569 764.541 443.19L754.733 439.333C753.394 438.798 751.865 439.389 751.224 440.659L746.039 450.97C745.892 451.26 745.814 451.583 745.769 451.873C745.667 452.853 746.117 453.868 746.995 454.436L753.676 458.672C754.485 459.196 754.958 460.121 754.924 461.057C754.913 461.302 754.868 461.559 754.789 461.804C752.731 467.723 751.91 473.976 752.326 480.229C752.416 481.288 751.82 482.28 750.886 482.759C750.751 482.826 750.605 482.881 750.459 482.926L741.382 485.735C740.066 486.136 739.268 487.463 739.526 488.811L739.583 489.079L741.776 500.147C742.124 501.618 743.418 502.543 744.846 502.399ZM823.466 468.079C824.163 469.818 824.725 471.702 825.119 473.697C825.861 477.52 825.063 483.55 823.308 487.039C823.117 487.418 822.926 487.775 822.735 488.142C810.666 510.201 779.196 505.72 774.078 480.775C773.415 477.509 773.853 472.772 775.034 469.138C775.315 468.302 775.63 467.511 775.979 466.842C777.587 463.676 779.59 461.024 781.861 458.872C794.818 446.612 816.413 450.702 823.466 468.079Z" fill="#ADC0E4"/>
<path d="M673.257 428.075L681.636 425.289C682.333 425.066 683.11 425.244 683.627 425.757C684.291 426.415 684.988 427.05 685.708 427.663C687.057 428.8 688.463 429.825 689.925 430.706C690.612 431.118 690.971 431.887 690.836 432.668L689.352 441.707C689.183 442.666 689.802 443.602 690.769 443.847L698.957 445.909C699.891 446.143 700.835 445.642 701.173 444.761L704.142 436.859C704.412 436.078 705.177 435.588 706.032 435.633C709.631 435.8 713.241 435.398 716.739 434.44C717.583 434.206 718.494 434.596 718.932 435.343L721.486 439.801C721.981 440.648 723.038 441.005 723.949 440.626L731.642 437.304C731.8 437.238 731.946 437.16 732.069 437.048C732.699 436.569 732.958 435.733 732.688 434.964L730.596 428.755L730.079 427.239C731.248 426.214 732.384 425.077 733.419 423.862C734.825 422.224 736.051 420.485 737.086 418.69C737.479 418.01 738.255 417.631 739.032 417.765L746.376 418.958C747.377 419.114 748.344 418.49 748.592 417.52L750.178 411.311L750.628 409.528C750.875 408.558 750.346 407.544 749.402 407.198L742.743 404.735C741.967 404.456 741.461 403.721 741.484 402.918C741.529 400.511 741.326 398.103 740.865 395.751C740.842 395.539 740.797 395.361 740.752 395.16C740.73 395.094 740.73 395.027 740.719 394.96C740.629 394.191 741.022 393.455 741.697 393.076L748.997 388.952C749.087 388.907 749.154 388.852 749.233 388.796C749.919 388.261 750.167 387.325 749.818 386.522L746.489 378.92C746.084 378.006 745.049 377.538 744.082 377.862L735.342 380.771C734.6 381.027 733.79 380.793 733.284 380.202C732.159 378.92 730.911 377.694 729.561 376.546C728.841 375.944 728.099 375.365 727.346 374.83C726.738 374.395 726.423 373.648 726.547 372.913L727.975 364.219C728.133 363.26 727.526 362.335 726.569 362.09L718.46 360.061C717.482 359.816 716.469 360.328 716.109 361.276L713.759 367.529C713.444 368.365 712.6 368.878 711.712 368.777C708.214 368.354 704.671 368.476 701.207 369.134C700.397 369.301 699.553 368.922 699.137 368.198L695.392 361.677C694.886 360.797 693.795 360.451 692.861 360.841L685.213 364.129C684.29 364.519 683.841 365.556 684.156 366.481L684.279 366.849L686.72 374.061C686.979 374.83 686.731 375.666 686.101 376.19L686.09 376.201C684.572 377.438 683.132 378.831 681.805 380.381C681.096 381.205 680.444 382.053 679.825 382.922C679.398 383.535 678.667 383.847 677.936 383.724L670.479 382.51C669.455 382.342 668.477 382.978 668.229 383.97L666.193 391.973C666.137 392.196 666.126 392.43 666.148 392.653C666.227 393.355 666.7 394.001 667.397 394.258L672.728 396.208C673.381 396.453 673.853 397.033 673.965 397.691C673.999 397.869 673.999 398.047 673.977 398.237C673.448 402.684 673.83 407.187 675.09 411.501C675.315 412.225 675.045 413.006 674.472 413.496C674.393 413.563 674.303 413.63 674.202 413.686L668.285 417.018C667.431 417.498 667.071 418.545 667.464 419.448L667.543 419.626L670.782 427.039C671.232 427.942 672.278 428.399 673.257 428.075ZM722.993 392.196C723.746 393.31 724.432 394.536 725.017 395.885C726.12 398.449 726.491 402.785 725.805 405.493C725.737 405.783 725.658 406.073 725.568 406.351C720.507 423.606 697.81 425.222 690.398 408.547C689.431 406.362 689.003 402.985 689.273 400.254C689.341 399.63 689.442 399.028 689.588 398.504C690.229 396.041 691.219 393.89 692.479 392.04C699.654 381.506 715.378 381.105 722.993 392.196Z" fill="#1C81C4"/>
<path d="M71.8027 877.102H107.952C109.886 875.475 106.613 871.774 103.183 871.529C101.698 871.417 99.8199 871.729 97.6604 872.175C97.1656 865.632 94.32 836.195 83.6125 837.377C71.5778 838.703 83.6125 850.34 87.0204 857.228C89.5398 862.333 92.2055 869.656 93.4202 873.1C92.4417 873.312 91.4294 873.513 90.3946 873.702C88.7975 868.843 82.8589 852.513 75.3119 853.472C66.4489 854.586 70.0144 861.129 76.2904 865.019C80.9018 867.873 86.5593 871.941 89.2474 873.903C86.9642 874.271 84.591 874.516 82.1728 874.46C75.998 874.326 72.9837 876.132 71.8027 877.102Z" fill="#0A74C0"/>
<path d="M958.333 876.232H917.46C915.267 874.393 918.978 870.213 922.848 869.924C924.535 869.801 926.66 870.147 929.09 870.659C929.652 863.258 932.869 829.965 944.971 831.302C958.58 832.796 944.971 845.959 941.125 853.751C938.279 859.524 935.265 867.795 933.892 871.707C934.995 871.941 936.142 872.175 937.312 872.387C939.111 866.892 945.826 848.434 954.363 849.504C964.384 850.763 960.358 858.164 953.249 862.567C948.042 865.8 941.631 870.392 938.594 872.61C941.17 873.022 943.858 873.312 946.591 873.245C953.598 873.089 957.017 875.129 958.333 876.232Z" fill="#0A74C0"/>
<g opacity="0.5">
<g opacity="0.5">
<path opacity="0.5" d="M726.873 649.228C726.873 649.228 734.937 599.282 762.089 570.357C765.699 566.512 772.2 569.309 771.874 574.548C771.874 574.637 771.863 574.727 771.851 574.816C771.154 583.744 740.583 620.359 726.873 649.228Z" fill="#7FC6F8"/>
</g>
<g opacity="0.5">
<path opacity="0.5" d="M723.139 663.462C723.139 663.462 751.516 601.756 796.798 575.752C799.554 574.169 803.187 574.927 804.885 577.602C805.987 579.341 806.415 582.016 804.93 586.096C800.971 596.997 750.223 632.197 723.139 663.462Z" fill="#7FC6F8"/>
</g>
</g>
<path d="M880.962 833.843C907.54 808.263 868.5 761.326 868.5 761.326C868.5 761.326 793.896 755.886 786.81 746.267C779.725 736.648 851.517 738.576 851.517 738.576C842.271 717.488 788.97 680.081 788.97 680.081C788.97 680.081 726.918 718.402 722.442 707.356C717.965 696.31 779.128 676.202 779.128 676.202C762.426 660.051 729.505 654.5 729.505 654.5C679.713 652.304 679.454 715.782 679.454 715.782C679.454 715.782 657.657 728.6 624.657 729.002C624.657 729.002 618.257 728.522 608.539 729.793L611.497 735.076C613.173 734.72 614.815 734.441 616.435 734.24C616.446 734.229 616.458 734.229 616.469 734.24C616.491 734.24 616.514 734.24 616.536 734.229C617.56 734.14 619.022 734.017 620.81 733.873C620.81 733.873 620.81 733.873 620.821 733.873C620.821 733.873 620.822 733.873 620.833 733.873C624.927 733.739 627.885 733.527 629.977 733.282C629.988 733.282 629.988 733.282 629.999 733.282C642.709 732.624 659.647 732.424 664.979 735.567C664.979 735.567 665.485 734.53 666.79 733.092C666.216 733.884 665.609 734.709 664.979 735.567C650.492 755.351 672.526 802.344 691.826 824.659C711.127 846.974 712.15 832.06 716.199 812.108C720.248 792.156 701.285 765.428 701.15 754.527C701.015 743.626 712.443 753.39 720.53 770.889C728.616 788.4 716.379 806.1 728.943 834.657C741.506 863.214 804.547 855.59 804.547 855.59C788.205 840.085 779.848 800.772 785.641 795.902C791.433 791.031 818.607 841.111 824.894 847.787C831.159 854.464 854.385 859.424 880.962 833.843Z" fill="#7FC6F8"/>
<g opacity="0.3">
<path opacity="0.3" d="M165.268 640.612C158.036 614.34 200.833 598.981 200.833 598.981C200.833 598.981 250.524 623.402 258.712 619.913C266.9 616.425 220.336 590.811 220.336 590.811C234.271 580.801 282.534 576.855 282.534 576.855C282.534 576.855 307.559 624.517 314.623 619.133C321.686 613.749 290.294 578.048 290.294 578.048C307.109 573.98 330.234 582.752 330.234 582.752C362.851 599.973 338.861 640.579 338.861 640.579C338.861 640.579 347.892 656.908 368.801 669.503C368.801 669.503 373.075 671.587 378.789 676.035L374.897 678.297C373.964 677.45 373.019 676.648 372.063 675.912C372.063 675.901 372.052 675.901 372.04 675.901C372.029 675.89 372.018 675.879 371.995 675.868C371.377 675.422 370.488 674.798 369.397 674.04C366.844 672.423 365.022 671.186 363.785 670.25L363.774 670.239C355.912 665.067 345.182 658.602 340.581 658.613C340.581 658.613 340.66 657.766 340.368 656.362C340.435 657.086 340.503 657.833 340.581 658.613C342.302 676.659 310.349 698.416 289.53 705.45C268.711 712.483 273.738 702.574 278.743 688.329C283.76 674.084 306.041 664.108 310.27 657.198C314.51 650.287 303.499 652.249 291.667 660.397C279.834 668.544 280.914 684.428 262.018 697.948C243.123 711.48 205.782 683.035 205.782 683.035C222.113 679.245 242.414 657.287 240.581 652.003C238.736 646.731 202.329 668.533 195.771 670.45C189.214 672.39 172.501 666.873 165.268 640.612Z" fill="#ADC0E4"/>
</g>
<path d="M504.816 629.165L485.043 862.155C485.043 862.155 482.973 876.277 493.568 876.299C511.002 876.344 580.319 876.299 580.319 876.299C580.319 876.299 567.205 873.357 567.362 866.747C567.554 858.945 590.476 626.958 590.476 626.958L504.816 629.165Z" fill="#107BC0"/>
<path d="M586.843 872.164C583.413 872.175 516.299 872.287 499.327 872.075C491.926 871.986 490.633 865.554 490.577 861.397C490.543 859.402 490.802 857.93 490.802 857.93L491.319 851.878L492.635 836.44L493.793 822.809L495.278 805.287L496.526 790.496L510.574 624.94L596.235 622.733C596.235 622.733 586.584 719.817 579.746 790.484C578.981 798.354 578.261 805.911 577.586 812.955C577.373 815.207 577.159 817.403 576.957 819.543C576.327 826.23 575.742 832.372 575.236 837.789C574.966 840.643 574.73 843.306 574.505 845.736C573.627 855.266 573.121 861.352 573.11 862.512C573.11 863.191 573.166 863.816 573.279 864.395C574.696 871.83 585.561 872.164 586.843 872.164Z" fill="#009FDC"/>
<path d="M296.784 502.376L344.945 694.103L351.536 720.352L373.975 809.656H790.713L708.034 502.376H296.784Z" fill="#009FDC"/>
<path d="M296.784 502.376L290.103 504.583L365.101 816.321L373.975 809.656L296.784 502.376Z" fill="#107BC0"/>
<path d="M365.101 816.321H779.275L790.713 809.656H373.975L365.101 816.321Z" fill="#107BC0"/>
<path d="M510.551 876.385H600.226V872.16H510.551V876.385Z" fill="#009FDC"/>
<path d="M577.429 816.321L576.956 819.554L492.624 836.429L493.782 822.797L494.333 816.321H577.429Z" fill="#006CB5"/>
<path d="M586.843 872.164C583.413 872.175 516.299 872.287 499.327 872.075C491.926 871.986 490.633 865.554 490.577 861.397L574.516 845.748C573.639 855.278 573.132 861.363 573.121 862.523C573.121 863.203 573.177 863.827 573.29 864.406C574.696 871.83 585.561 872.164 586.843 872.164Z" fill="#759EB5"/>
<path d="M296.784 502.376H708.034L774.764 749.332H358.813L296.784 502.376Z" fill="#006CB5"/>
<path d="M755.363 738.632H370.308L356.541 684.305L351.221 663.283L349.051 654.712L334.913 598.892L334.182 595.982L326.702 566.478L323.362 553.27L320.505 542.012L313.813 515.607H693.322L700.667 542.012L703.805 553.27L707.471 566.478L731.676 653.464L733.723 660.831L734.679 664.253L751.381 724.309L755.363 738.632Z" fill="#00A6E0"/>
<path d="M515.062 749.333L374.11 810.369L358.813 749.333H515.062Z" fill="#107BC0"/>
<path d="M549.578 655.224C518.119 655.224 488.28 629.855 483.061 598.679C477.842 567.503 499.19 542.134 530.649 542.134C562.108 542.134 591.947 567.503 597.166 598.679C602.385 629.866 581.037 655.224 549.578 655.224ZM532.291 551.898C506.253 551.898 488.584 572.886 492.903 598.69C497.222 624.494 521.91 645.482 547.947 645.482C573.985 645.482 591.655 624.494 587.336 598.69C583.017 572.886 558.329 551.898 532.291 551.898Z" fill="#E5F0FB"/>
<path d="M549.603 655.359C518.076 655.359 488.17 629.934 482.94 598.691C477.71 567.448 499.113 542.023 530.64 542.023C547.77 542.023 565.113 549.536 578.216 562.644C588.328 572.754 595.11 585.561 597.314 598.691C597.775 601.455 595.886 603.696 593.108 603.696C590.318 603.696 587.687 601.455 587.225 598.691C585.415 587.879 579.836 577.335 571.513 569.009C560.715 558.219 546.442 552.022 532.338 552.022C506.379 552.022 488.755 572.954 493.062 598.68C497.37 624.405 521.991 645.338 547.961 645.338C550.75 645.338 553.382 647.578 553.843 650.343C554.282 653.118 552.392 655.359 549.603 655.359Z" fill="#1C81C4"/>
<path d="M657.859 698.773L658.759 704.179C659.254 707.133 657.218 709.54 654.249 709.54H463.099C460.119 709.54 457.284 707.133 456.789 704.179L455.89 698.773C455.395 695.819 457.431 693.412 460.4 693.412H651.549C654.519 693.412 657.364 695.819 657.859 698.773Z" fill="#E5F0FB"/>
<path d="M596.1 693.412L598.799 709.54H463.099C460.119 709.54 457.284 707.133 456.789 704.179L455.89 698.773C455.395 695.819 457.431 693.412 460.4 693.412H596.1Z" fill="#1C81C4"/>
<path d="M567.936 693.412L555.62 709.54H527.536L539.851 693.412H567.936Z" fill="#1C81C4"/>
<path d="M596.1 693.412L598.799 709.54H572.761L585.077 693.412H596.1Z" fill="#1C81C4"/>
<path d="M522.71 693.412L510.395 709.54H482.299L494.614 693.412H522.71Z" fill="#1C81C4"/>
<path d="M477.473 693.412L465.158 709.54H463.099C460.119 709.54 457.284 707.133 456.789 704.179L455.89 698.773C455.395 695.819 457.431 693.412 460.4 693.412H477.473Z" fill="#1C81C4"/>
<path d="M516.682 587.344C515.771 581.927 518.785 577.357 524.364 577.357C529.886 577.357 534.363 581.882 535.274 587.344C536.185 592.761 533.17 597.331 527.592 597.331C522.069 597.331 517.593 592.806 516.682 587.344ZM530.257 587.344C529.729 584.223 527.502 581.648 524.971 581.648C522.328 581.648 521.181 584.212 521.698 587.344C522.227 590.521 524.454 593.04 526.984 593.04C529.628 593.029 530.775 590.465 530.257 587.344ZM547.916 577.792H553.494L531.191 616.87H525.612L547.916 577.792ZM543.855 607.329C542.944 601.912 545.959 597.342 551.537 597.342C557.06 597.342 561.536 601.868 562.447 607.329C563.358 612.746 560.344 617.316 554.765 617.316C549.243 617.316 544.767 612.791 543.855 607.329ZM557.42 607.329C556.902 604.208 554.664 601.634 552.134 601.634C549.49 601.634 548.343 604.197 548.861 607.329C549.389 610.506 551.616 613.025 554.147 613.025C556.801 613.014 557.948 610.45 557.42 607.329Z" fill="#E5F0FB"/>
<path d="M534.768 680.661H535.915L536.826 686.1H540.256L540.425 687.137H535.847L534.768 680.661Z" fill="#E5F0FB"/>
<path d="M540.717 684.695C540.481 683.302 541.415 682.143 542.922 682.143C544.429 682.143 545.734 683.28 545.97 684.695C546.206 686.078 545.273 687.237 543.754 687.237C542.258 687.237 540.954 686.1 540.717 684.695ZM544.845 684.695C544.699 683.837 543.957 683.124 543.068 683.124C542.168 683.124 541.707 683.826 541.853 684.695C542 685.543 542.742 686.267 543.619 686.267C544.53 686.267 544.991 685.554 544.845 684.695Z" fill="#E5F0FB"/>
<path d="M550.536 687.125L550.435 686.523C550.165 686.925 549.704 687.226 548.962 687.226C548.028 687.226 547.117 686.702 546.949 685.699C546.769 684.617 547.533 684.105 548.681 684.105C549.277 684.105 549.67 684.183 550.075 684.305L550.064 684.216C549.952 683.536 549.457 683.168 548.681 683.168C548.129 683.168 547.736 683.291 547.32 683.469L546.859 682.578C547.365 682.332 547.86 682.176 548.669 682.176C550.12 682.176 550.964 682.934 551.178 684.238L551.661 687.136H550.536V687.125ZM550.221 685.086C549.918 684.974 549.502 684.896 549.063 684.896C548.354 684.896 547.983 685.186 548.062 685.676C548.141 686.133 548.602 686.401 549.13 686.401C549.873 686.401 550.368 685.988 550.266 685.375L550.221 685.086Z" fill="#E5F0FB"/>
<path d="M552.336 684.673C552.066 683.057 553.022 682.143 554.192 682.143C555.002 682.143 555.587 682.544 556.014 683.001L555.575 680.371H556.7L557.825 687.114H556.7L556.565 686.3C556.284 686.813 555.845 687.214 555.035 687.214C553.899 687.226 552.617 686.312 552.336 684.673ZM556.318 684.673C556.16 683.726 555.384 683.113 554.63 683.113C553.854 683.113 553.315 683.703 553.472 684.695C553.629 685.643 554.383 686.256 555.148 686.256C555.913 686.256 556.486 685.632 556.318 684.673Z" fill="#E5F0FB"/>
<path d="M558.151 680.438H559.366L559.546 681.496H558.331L558.151 680.438ZM558.5 682.243H559.624L560.445 687.125H559.321L558.5 682.243Z" fill="#E5F0FB"/>
<path d="M561.098 682.243H562.222L562.346 683.001C562.582 682.544 562.976 682.143 563.741 682.143C564.854 682.143 565.619 682.879 565.81 684.015L566.328 687.125H565.203L564.742 684.35C564.618 683.592 564.157 683.157 563.493 683.157C562.841 683.157 562.459 683.614 562.582 684.372L563.044 687.125H561.919L561.098 682.243Z" fill="#E5F0FB"/>
<path d="M567.846 688.039L568.127 687.203C568.701 687.527 569.297 687.716 569.972 687.716C570.984 687.716 571.445 687.203 571.277 686.222L571.209 685.843C570.883 686.367 570.433 686.735 569.623 686.735C568.465 686.735 567.239 685.888 567.003 684.439C566.766 683.001 567.711 682.143 568.858 682.143C569.691 682.143 570.264 682.522 570.725 682.979L570.602 682.243H571.727L572.379 686.122C572.514 686.947 572.401 687.56 572.064 687.961C571.693 688.407 571.04 688.619 570.152 688.619C569.331 688.63 568.543 688.418 567.846 688.039ZM570.984 684.439C570.849 683.637 570.096 683.09 569.308 683.09C568.521 683.09 568.004 683.625 568.139 684.45C568.274 685.253 568.993 685.799 569.758 685.799C570.546 685.799 571.119 685.242 570.984 684.439Z" fill="#E5F0FB"/>
<path d="M702.342 661.377L681.805 666.059L671.603 684.328L663.978 642.607L702.342 661.377Z" fill="#203865"/>
<path d="M680.683 662.029L677.683 664.269L690.744 681.451L693.744 679.211L680.683 662.029Z" fill="#203865"/>
<path d="M271.601 643.956C271.601 643.956 272.569 633.545 260.826 633.545C260.826 633.545 264.38 634.504 266.225 636.41C266.225 636.41 258.734 632.052 250.591 638.751C242.448 645.438 247.509 662.225 245.024 665.412C242.549 668.6 232.899 669.236 234.08 679.546C235.261 689.856 264.695 702.752 262.806 711.279C262.806 711.279 274.346 694.471 266.09 686.802C266.09 686.802 270.117 690.558 270.522 695.017C270.522 695.017 271.613 686.3 266.023 683.514C261.074 681.051 257.013 672.033 257.452 670.417C257.879 668.812 271.601 643.956 271.601 643.956Z" fill="#2A3A67"/>
<path d="M260.05 693.936C260.05 693.936 268.823 729.893 277.427 737.072C282.601 741.396 297.988 751.305 297.988 751.305L291.588 753.601C291.588 753.601 270.252 746.457 265.471 740.895C260.691 735.333 247.611 707.434 247.611 707.434L260.05 693.936Z" fill="#F6AA78"/>
<path d="M310.405 764.458L308.346 759.398C306.142 753.98 300.822 750.425 294.928 750.425H256.901V774.334V876.388H414.162V774.334H325.173C318.683 774.322 312.834 770.421 310.405 764.458Z" fill="#006CB5"/>
<path d="M177.629 757.101C177.708 757.235 177.787 757.38 177.866 757.525C179.789 760.835 184.187 768.928 189.034 777.789C191.329 781.991 193.724 786.371 196.008 790.496C199.933 797.607 203.498 803.938 205.59 807.282C207.705 810.681 209.268 813.078 209.898 814.025C210.089 814.315 210.134 814.661 210.101 815.006C209.876 818.005 209.943 820.981 210.235 823.923C213.16 852.759 232.775 868.207 232.775 868.207L238.613 869.066C238.613 869.066 230.357 838.759 227.928 821.616C227.523 818.718 227.343 816.355 227.478 814.828C227.905 810.358 227.107 803.804 225.599 796.28C222.911 782.905 217.962 766.498 213.666 753.356C213.396 752.52 205.185 723.105 205.185 723.105C198.302 729.069 173.187 731.532 173.187 731.532C173.187 731.532 168.946 741.798 177.629 757.101Z" fill="#2953A0"/>
<path d="M250.872 876.389H226.522C226.522 876.389 225.937 872.71 227.208 869.924C228.423 867.249 230.166 867.159 227.433 862.968C228.985 864.551 233.956 865.198 237.477 864.73C237.904 865.421 240.255 870.069 241.694 871.094C243.292 872.22 250.377 871.819 250.872 876.389Z" fill="#203865"/>
<path d="M177.629 757.101C177.708 757.235 177.787 757.38 177.866 757.525C179.789 760.835 190.159 779.829 195.007 788.69C189.383 765.784 193.297 742.879 193.297 742.879L177.629 757.101Z" fill="#203865"/>
<path d="M268.283 642.485C268.441 641.849 254.382 648.782 253.662 649.574C247.071 656.83 248.949 666.293 252.717 666.382C255.135 666.438 254.674 670.428 254.674 670.428L281.645 659.115C281.645 659.115 278.395 640.356 268.283 642.485Z" fill="#2A3A67"/>
<path d="M259.218 688.541C259.218 688.541 263.323 696.666 262.806 703.254C262.806 703.254 257.857 711.001 245.024 712.951C245.024 712.962 256.057 688.53 259.218 688.541Z" fill="#ADC0E4"/>
<path d="M196.604 733.338L196.682 728.823C187.606 729.96 165.403 718.078 165.403 718.078C165.403 718.078 155.911 724.331 154.617 742.199C153.987 750.915 149.972 787.798 149.522 798.811C149.365 802.801 149.308 805.654 149.286 806.791C149.286 806.802 149.286 806.802 149.286 806.802C149.286 807.148 149.117 807.46 148.903 807.728C147.025 810.091 145.394 812.599 143.988 815.196C130.143 840.72 137.386 875.408 137.386 875.408L140.603 874.594C140.603 874.594 152.311 838.636 159.96 823.087C161.253 820.445 162.434 818.395 163.424 817.213C166.303 813.747 169.329 807.873 172.321 800.795C177.978 787.419 196.604 733.338 196.604 733.338Z" fill="#2953A0"/>
<path d="M156.754 876.389H132.404C132.404 876.389 131.819 872.71 133.09 869.924C134.304 867.249 136.216 866.034 135.755 862.79C137.307 864.373 139.827 866.134 143.347 865.666C143.775 866.357 146.137 870.069 147.576 871.094C149.162 872.22 156.259 871.819 156.754 876.389Z" fill="#203865"/>
<path d="M243.382 718.145C240.109 718.703 243.91 721.277 239.423 721.757C233.023 722.448 226.409 722.927 222.945 724.287C221.685 724.788 220.842 725.401 220.572 726.193C219.076 730.662 209.561 738.353 209.561 738.353C167.169 736.436 164.436 717.71 164.436 717.71C191.947 691.227 215.364 676.793 234.71 675.009C239.423 674.575 245.766 675.154 248.747 676.469C255.518 679.457 259.218 688.541 259.218 688.541C259.218 688.541 255.81 716.039 243.382 718.145Z" fill="#ADC0E4"/>
<path d="M239.423 721.757C233.023 722.448 226.409 722.927 222.945 724.287C212.935 704.513 231.504 687.571 231.504 687.571C231.504 687.571 238.017 713.82 239.423 721.757Z" fill="#92AEDC"/>
<path d="M244.945 684.027C244.945 684.027 228.85 683.157 225.982 693.178C223.125 703.198 231.347 743.18 233.124 747.304C236.352 754.816 252.627 777.198 252.627 777.198L257.846 774.523C257.846 774.523 247.363 741.764 245.024 738.521C241.357 733.427 249.759 688.385 244.945 684.027Z" fill="#F6AA78"/>
<path d="M257.846 774.512C257.846 774.512 259.195 775.671 260.275 776.986C261.355 778.302 260.41 778.77 263.514 784.711C263.514 784.711 263.357 785.535 262.682 785.379C262.007 785.235 259.657 782.927 258.453 783.094C258.453 783.094 257.598 783.797 257.497 786.126C257.407 788.3 257.407 793.115 257.025 794.018C256.642 794.921 253.853 790.228 252.469 786.828C251.266 783.852 252.436 773.81 252.436 773.81L257.846 774.512Z" fill="#F6AA78"/>
<path d="M222.81 706.564C222.855 706.798 238.05 709.34 247.543 704.558C247.543 704.558 255.484 679.914 244.135 681.095C232.787 682.277 226.072 685.81 225.791 691.194C225.509 696.577 222.81 706.564 222.81 706.564Z" fill="#ADC0E4"/>
<path d="M248.387 678.197C248.555 680.192 248.814 682.522 251.446 685.219C253.459 687.281 256.384 688.886 258.431 686.858C259.477 685.821 260.882 684.283 261.602 683.068C263.368 680.047 265.483 676.971 265.483 676.971L256.372 669.057L255.832 668.589C253.448 672.724 251.097 674.708 249.039 676.224C248.398 676.67 248.319 677.428 248.387 678.197Z" fill="#F6AA78"/>
<path d="M265.471 676.96C265.471 676.96 263.368 680.036 261.591 683.057C255.922 679.602 255.922 672.646 256.361 669.046L265.471 676.96Z" fill="#1C81C4"/>
<path d="M265.719 680.928C265.719 680.928 251.963 673.348 256.867 664.933C261.76 656.518 263.289 649.874 272.276 654.355C281.263 658.836 281.083 663.016 280.138 666.226C279.193 669.425 269.419 682.689 265.719 680.928Z" fill="#F6AA78"/>
<path d="M282.455 661.311C281.825 657.577 279.913 657.22 278.575 657.465C273.491 649.139 265.201 652.394 265.201 652.394C260.77 657.9 254.359 658.847 254.359 658.847C254.359 658.847 255.956 661.79 262.525 663.607C264.538 664.164 266.81 663.83 269.014 663.094C264.448 665.613 259.679 666.583 259.679 666.583C268.34 667.363 276.584 659.516 277.439 658.68C277.844 659.895 278.541 662.447 278.125 664.309C277.551 666.839 275.29 671.42 276.674 672.011C276.685 672.011 283.4 666.917 282.455 661.311Z" fill="#2A3A67"/>
<path d="M300.496 751.328C300.496 751.328 296.66 754.181 299.551 756.042C302.442 757.904 307.604 758.405 307.627 757.191C307.705 753.089 305.636 750.169 300.496 751.328Z" fill="#F6AA78"/>
<path d="M298.1 838.893H379.351C382.703 838.893 385.279 833.821 385.324 830.221C385.458 818.941 373.244 800.917 345.542 808.898C345.542 808.898 337.725 787.999 310.27 790.529C294.141 792.023 285.154 808.318 284.075 822.853C283.445 831.525 289.991 838.893 298.1 838.893Z" fill="#ADC0E4"/>
<path d="M326.828 857.685H342.563V821.85H326.828V857.685Z" fill="#1C81C4"/>
<path d="M354.225 829.084H315.162L334.688 810.893L354.225 829.084Z" fill="#1C81C4"/>
<path d="M382.332 556.837C381.657 557.606 381.567 558.464 381.904 559.378C381.904 559.378 381.904 559.389 381.916 559.389C382.534 561.083 384.581 562.978 386.954 564.873C387.258 565.118 387.528 565.341 387.764 565.542C387.821 565.598 387.888 565.653 387.944 565.698C387.989 565.743 388.034 565.787 388.079 565.821C390.295 567.849 389.463 568.306 393.444 572.419C397.988 577.101 401.104 577.179 401.992 576.755C402.746 576.387 401.216 573.913 399.518 571.115C399.439 570.981 399.36 570.848 399.27 570.714C399.045 570.346 398.82 569.967 398.595 569.588C396.616 566.233 397.122 564.65 397.594 559.657C397.977 555.6 403.972 536.974 403.972 536.974L395.278 535.492C395.278 535.492 392.657 550.316 389.778 552.601C388.237 553.816 386.505 553.838 385.02 554.741C384.919 554.808 384.817 554.864 384.716 554.931C383.861 555.499 383.007 556.068 382.332 556.837Z" fill="#F6AA78"/>
<path d="M382.332 556.837C381.657 557.606 381.567 558.464 381.904 559.378C381.904 559.378 381.904 559.389 381.916 559.389C382.669 561.084 384.671 562.967 386.966 564.851C387.269 565.096 387.528 565.319 387.764 565.542C387.821 565.598 387.888 565.653 387.944 565.698C387.989 565.743 388.034 565.787 388.079 565.821C390.295 567.849 389.463 568.306 393.444 572.419C397.988 577.101 401.104 577.179 401.992 576.755C402.746 576.387 401.216 573.913 399.518 571.115C398.629 570.792 394.535 569.142 391.431 565.208C388.799 561.875 387.011 557.628 385.222 555.031C385.02 554.998 384.907 554.975 384.716 554.942C383.861 555.499 383.007 556.068 382.332 556.837Z" fill="#203865"/>
<path d="M452.459 551.453C452.999 554.117 456.823 553.671 461.097 552.635C465.371 551.598 464.359 552.835 470.444 552.167C476.529 551.498 478.373 549.246 478.553 548.355C478.722 547.563 475.708 547.273 472.491 546.906C472.086 546.861 471.681 546.805 471.265 546.761C467.621 546.304 464.955 543.974 461.648 542.068C458.51 540.251 453.843 532.872 453.843 532.872L445.497 533.53C445.497 533.53 449.872 540.117 451.571 542.982C452.572 544.665 452.515 546.894 452.392 548.622C452.335 549.558 452.268 550.517 452.459 551.453Z" fill="#F6AA78"/>
<path d="M461.097 552.635C465.371 551.598 464.359 552.835 470.444 552.167C476.529 551.498 478.373 549.246 478.553 548.355C478.722 547.563 475.708 547.273 472.491 546.906L472.457 546.961C472.457 546.961 468.813 549.525 463.74 549.647C459.613 549.748 455.237 548.577 452.392 548.622C452.324 549.558 452.268 550.517 452.459 551.453C452.999 554.117 456.823 553.671 461.097 552.635Z" fill="#203865"/>
<path d="M420.483 498.575L412.677 519.374L402.498 546.538C402.498 546.538 399.732 546.805 397.088 546.047C394.648 545.345 391.858 543.528 391.858 543.528C391.858 543.528 394.681 514.358 399.956 497.617C401.306 493.314 402.825 489.848 404.5 487.886C412.677 478.311 420.483 498.575 420.483 498.575Z" fill="#92AEDC"/>
<path d="M412.553 465.538C408.111 464.122 396.526 465.516 383.963 467.767C380.487 468.391 376.989 466.82 375.156 463.833L343.528 461.38C343.528 461.38 333.091 484.319 338.804 498.932C339.648 501.083 341.493 502.421 344.327 502.465C344.327 502.465 363.436 502.488 369.555 502.488C385.279 502.488 402.847 491.776 405.108 491.319C408.831 490.584 410.315 497.951 414.027 505.687C417.75 513.422 448.972 539.95 448.972 539.95C448.972 539.95 453.775 539.995 455.755 539.259C457.892 538.468 458.668 537.442 458.668 537.442C458.668 537.442 424.071 469.227 412.553 465.538Z" fill="#ADC0E4"/>
<path d="M371.791 371.798C369.44 370.416 367.157 370.204 365.751 370.237C364.772 370.26 363.805 370.204 362.838 370.059C350.769 368.309 343.504 385.675 343.076 390.936C342.289 400.578 337.149 402.049 329.906 408.079C315.385 420.184 319.648 434.25 327.577 439.478C332.346 442.61 340.737 439.478 340.737 439.478C340.86 439.556 363.704 426.816 374.963 420.674C391.845 418.289 378.573 375.799 371.791 371.798Z" fill="#203865"/>
<path d="M365.528 415.436C365.573 415.469 359.983 417.364 356.249 415.714C352.729 414.176 350.063 408.436 350.119 408.436C351.716 408.358 353.471 406.976 354.832 397.88L355.518 398.125L366.968 402.205C366.968 402.205 366.136 405.85 365.596 409.316C365.146 412.237 364.898 415.023 365.528 415.436Z" fill="#F6AA78"/>
<path d="M366.968 402.216C366.968 402.216 366.507 404.178 365.843 407.856C359.263 406.686 356.44 401.659 355.518 398.137L366.968 402.216Z" fill="#1C81C4"/>
<path d="M368.666 405.827C368.666 405.827 352.999 403.743 354.45 394.09C355.912 384.438 354.866 377.672 364.943 378.597C375.01 379.522 376.393 383.49 376.697 386.834C377.001 390.167 372.783 406.128 368.666 405.827Z" fill="#F6AA78"/>
<path d="M376.134 381.54C376.134 381.54 366.102 390.111 359.275 390.802C352.447 391.493 349.872 389.32 349.872 389.32C349.872 389.32 353.898 386.009 356.317 380.67C357.025 379.099 358.544 378.018 360.276 377.861C365.135 377.449 374.369 377.26 376.134 381.54Z" fill="#203865"/>
<path d="M369.858 380.771C369.858 380.771 373.21 383.992 374.267 386.377C375.291 388.685 375.595 394.18 374.785 396.375C374.785 396.375 380.015 386.299 377.057 381.406C373.919 376.201 369.858 380.771 369.858 380.771Z" fill="#203865"/>
<path d="M378.721 438.319C378.249 469.762 378.586 463.186 375.122 466.173C374.29 466.887 371.939 467.321 368.846 467.522C359.117 468.157 342.021 466.575 341.369 464.791C339.131 458.627 340.705 456.71 338.838 447.269C338.647 446.266 338.399 445.174 338.118 443.992C336.555 437.505 335.037 435.309 340.57 424.888C345.587 415.458 350.805 407.8 351.278 408.079C364.527 415.87 365.596 409.327 365.596 409.327C365.596 409.327 378.958 422.982 378.721 438.319Z" fill="#1C81C4"/>
<path d="M412.677 519.374L402.498 546.538C402.498 546.538 399.732 546.805 397.088 546.047C394.648 545.345 391.858 543.528 391.858 543.528C391.858 543.528 394.681 514.358 399.956 497.617L412.677 519.374Z" fill="#ADC0E4"/>
<path d="M365.596 409.327C365.596 409.327 379.227 411.623 380.825 417.431C382.422 423.249 387.697 458.549 387.697 458.549C387.697 458.549 383.85 462.272 380.656 459.095C377.45 455.919 370.578 426.058 370.578 426.058L365.596 409.327Z" fill="#1C81C4"/>
<path d="M368.846 467.522C359.117 468.157 342.021 466.574 341.369 464.791C339.131 458.627 340.705 456.71 338.838 447.269L343.528 434.172C343.528 434.172 342.752 448.752 347.094 452.586C351.424 456.42 364.853 459.987 366.968 463.197C367.98 464.735 368.644 466.274 368.846 467.522Z" fill="#1C81C4"/>
<path d="M357.7 461.38C357.7 461.38 367.294 459.263 368.846 460.11C370.398 460.957 374.177 464.022 374.65 465.092C375.122 466.162 371.197 464.278 369.926 463.944C369.105 463.721 366.923 464.468 365.854 464.825C361.322 466.318 358.555 465.549 358.555 465.549L357.7 461.38Z" fill="#F6AA78"/>
<path d="M351.267 408.079C351.267 408.079 338.377 408.87 333.923 415.034C327.647 423.717 315.185 460.7 322.327 465.638C330.369 471.189 358.915 467.087 358.915 467.087C358.915 467.087 359.86 462.684 358.544 460.556C357.216 458.427 335.745 454.982 334.744 454.002C333.754 453.021 347.139 434.841 347.139 431.899C347.15 428.945 351.267 408.079 351.267 408.079Z" fill="#1C81C4"/>
<path d="M369.307 462.763C369.307 462.763 371.321 465.337 371.973 465.638C372.637 465.95 373.053 465.872 373.053 465.872L371.703 463.454L369.307 462.763Z" fill="#F6AA78"/>
<path d="M368.846 460.11L374.695 462.919C374.695 462.919 374.447 463.32 373.728 463.286C373.008 463.253 371.197 462.595 371.197 462.595L368.846 460.11Z" fill="#F6AA78"/>
<path d="M418.762 466.719H357.7V468.057H418.222L418.762 466.719Z" fill="#203865"/>
<path d="M371.984 468.057H418.222L432.135 433.782H385.965L371.984 468.057Z" fill="#203865"/>
<path d="M406.547 450.914C406.896 449.71 406.188 448.729 404.973 448.729C403.758 448.729 402.487 449.71 402.138 450.914C401.79 452.118 402.498 453.099 403.713 453.099C404.928 453.099 406.199 452.129 406.547 450.914Z" fill="white"/>
<path d="M858.22 607.597C858.22 607.597 880.636 630.19 881.772 639.575C882.919 648.961 870.153 663.596 870.153 663.596L858.22 607.597Z" fill="#1C81C4"/>
<path d="M845.42 863.548C845.42 863.548 844.566 876.768 841.979 876.957C841.63 876.979 828.887 876.957 828.887 876.957L812.612 876.823C812.612 876.823 812.724 872.933 817.482 872.131C822.24 871.317 830.214 868.029 833.105 861.798C836.153 855.244 845.42 863.548 845.42 863.548Z" fill="#172844"/>
<path d="M881.66 863.626C881.66 863.626 880.805 876.846 878.218 877.024C877.869 877.046 865.126 877.024 865.126 877.024L848.851 876.89C848.851 876.89 848.963 873 853.721 872.198C858.479 871.395 866.453 868.096 869.344 861.865C872.403 855.322 881.66 863.626 881.66 863.626Z" fill="#172844"/>
<path d="M827.706 721.422C827.706 721.422 831.901 748.407 847.67 796.325C863.439 844.243 865.565 864.986 865.565 864.986L882.593 864.551C882.593 864.551 882.852 812.22 875.586 788.121C868.32 764.023 874.203 701.303 874.203 701.303L827.706 721.422Z" fill="#1A3760"/>
<path d="M819.461 702.663C819.461 702.663 818.764 743.313 825.76 793.238C832.745 843.162 830.293 864.351 830.293 864.351L847.287 864.952C847.287 864.952 857.556 815.04 854.7 790.05C851.843 765.06 868.793 704.357 868.793 704.357L819.461 702.663Z" fill="#0C478D"/>
<path d="M852.574 607.608L843.508 613.471L830.428 611.03C830.608 609.982 831.485 605.646 832.284 601.712C832.328 601.478 832.385 601.243 832.43 601.021C833.116 597.677 833.701 594.801 833.701 594.801L845.938 589.484L850.504 587.5C850.493 587.567 850.144 591.212 850.099 591.747C849.2 601.188 852.574 607.608 852.574 607.608Z" fill="#F6AA78"/>
<path d="M833.791 604.599C834.049 604.498 849.56 599.995 851.247 600.541C852.934 601.099 853.924 604.331 853.924 604.331L828.549 609.96C828.538 609.96 830.54 605.947 833.791 604.599Z" fill="#1C81C4"/>
<path d="M875.316 707.802C872.662 719.683 828.909 720.999 817.662 710.187C816.38 708.95 816.335 703.232 816.83 695.518C817.808 680.449 820.901 657.788 821.036 646.207C821.104 640.612 821.891 634.894 822.937 629.7C825.164 618.632 828.527 609.949 828.527 609.949C828.527 609.949 849.908 603.149 853.901 604.32C873.168 609.982 877.97 695.931 875.316 707.802Z" fill="#1C81C4"/>
<path d="M816.83 695.518C817.808 680.449 820.901 657.788 821.036 646.207C821.104 640.612 821.891 634.894 822.937 629.7L835.793 627.482C835.804 627.482 849.976 681.474 816.83 695.518Z" fill="#1C81C4"/>
<path d="M823.837 674.53C823.837 674.53 824.714 676.603 822.87 677.997C821.025 679.39 819.833 681.641 820.249 683.291C820.665 684.941 824.692 687.638 826.098 687.214C827.492 686.78 830.349 684.617 830.045 683.748C829.742 682.879 831.98 676.113 828.572 673.505C825.164 670.885 823.837 674.53 823.837 674.53Z" fill="#F6AA78"/>
<path d="M838.008 607.641C838.008 607.641 825.816 609.235 815.795 623.803C805.773 638.372 799.183 649.206 801.005 654.467C802.838 659.728 819.563 677.997 822.453 678.008C825.344 678.019 830.012 675.934 830.293 671.253C830.293 671.253 819.687 652.605 822.026 649.975C823.027 648.849 836.22 638.439 838.256 643.655C841.619 652.271 838.008 607.641 838.008 607.641Z" fill="#1C81C4"/>
<path d="M849.155 591.914C846.455 596.417 836.445 600.285 832.272 601.712C832.317 601.478 832.374 601.243 832.419 601.021C833.105 597.677 833.689 594.801 833.689 594.801L845.927 589.484C848.626 589.462 850.268 590.064 849.155 591.914Z" fill="#1C81C4"/>
<path d="M829.078 594.065C829.078 594.065 848.761 600.196 852.416 587.991C856.083 575.785 861.088 568.362 848.682 563.926C836.276 559.501 832.418 563.424 830.203 567.203C827.976 570.993 824.05 592.148 829.078 594.065Z" fill="#F6AA78"/>
<path d="M830.979 566.032C830.979 566.032 832.205 580.244 835.174 579.631C838.143 579.018 840.832 578.572 840.393 582.852C839.954 587.132 835.826 592.07 844.959 592.85C854.092 593.631 867.285 570.301 864.788 565.876C857.556 553.103 820.541 550.45 830.979 566.032Z" fill="#1A3760"/>
</svg>
