<svg width="1080" height="1080" viewBox="0 0 1080 1080" fill="none" xmlns="http://www.w3.org/2000/svg">
<path d="M1026.08 820.058C1023.5 824.784 1020.91 828.98 1018.47 832.621C1018.41 832.732 1018.33 832.832 1018.25 832.943C1011.22 843.425 999.421 849.691 986.802 849.691C919.19 849.691 685.802 849.679 613.065 849.657C613.065 849.657 231.457 848.573 112.073 848.185C88.7162 848.108 67.6178 834.282 58.1535 812.918C47.4051 788.665 35.7489 753.73 34.3985 714.123C32.251 651.293 56.0281 576.74 150.495 514.552C231.667 461.109 145.414 425.831 209.96 366.332C284.136 297.967 409.918 355.042 492.408 324.036C506.975 318.568 521.609 277.057 536.243 263.542C544.489 255.937 553.522 249.295 563.186 243.55C564.669 242.665 566.163 241.812 567.68 240.971C573.469 237.761 579.469 234.861 585.657 232.248C589.808 230.499 594.036 228.883 598.353 227.4C605.194 225.042 612.223 223.005 619.396 221.278C629.58 218.832 640.074 217.006 650.767 215.777C655.438 215.235 660.143 214.814 664.881 214.493C757.045 208.294 860.765 243.129 914.297 294.027C925.068 304.277 974.072 357.322 935.451 430.214C911.065 476.241 968.405 571.449 1004.71 624.018C1027.43 656.905 1039.05 687.158 1043.65 714.123C1051.52 760.183 1038.89 796.613 1026.08 820.058Z" fill="#7FC6F8"/>
<path d="M379.267 714.256L377.285 714.001C377.33 713.647 378.503 705.223 386.805 699.976C394.133 695.338 391.631 680.837 391.609 680.693L393.58 680.339C393.613 680.505 394.288 684.324 393.967 688.84C393.535 694.984 391.432 699.423 387.879 701.67C380.363 706.419 379.278 714.178 379.267 714.256Z" fill="#273885"/>
<path d="M392.052 714.61C392.008 714.522 387.182 705.478 395.871 699.976C403.044 695.438 396.679 681.335 396.613 681.203L398.428 680.372C398.506 680.527 400.21 684.291 400.952 688.752C401.97 694.907 400.576 699.379 396.945 701.67C389.816 706.175 393.635 713.348 393.801 713.658L392.052 714.61Z" fill="#273885"/>
<path d="M1026.18 841.422C1026.01 841.798 1025.84 842.163 1025.68 842.54C1025.35 843.281 1025.01 844.012 1024.67 844.731C1022.42 849.58 1020.19 853.93 1018.07 857.771C1018.01 857.904 1017.93 858.026 1017.86 858.159C1010.82 870.866 999.023 878.46 986.404 878.46C959.582 878.46 906.67 878.46 848.047 878.449H840.055C808.108 878.449 774.756 878.449 743.23 878.438H733.81C683.101 878.438 638.07 878.427 612.666 878.416C612.666 878.416 484.869 877.973 354.051 877.519C351.837 877.508 349.623 877.508 347.409 877.497C309.33 877.364 271.174 877.22 236.017 877.098C231.468 877.087 226.974 877.065 222.524 877.054C177.371 876.899 138.097 876.744 111.674 876.645C93.1662 876.578 76.086 866.04 65.083 848.794C64.5074 847.886 63.9428 846.956 63.4004 846.015C61.2308 842.252 59.3379 838.2 57.755 833.894C47.0066 804.494 35.3505 762.131 34 714.134H1043.25C1051.02 769.227 1038.82 812.962 1026.18 841.422Z" fill="#0A74C0"/>
<path d="M807.632 815.021H240.124L297.32 756.763H757.786L807.632 815.021Z" fill="#7FC6F8"/>
<path d="M807.632 815.021H240.124V822.471H807.632V815.021Z" fill="#1295F3"/>
<path d="M752.916 768.983H300.596V770.976H752.916V768.983Z" fill="#1295F3"/>
<path d="M765.037 781.149H285.254V783.141H765.037V781.149Z" fill="#1295F3"/>
<path d="M777.811 794.609H272.48V796.601H777.811V794.609Z" fill="#1295F3"/>
<path d="M323.333 760.006H302.888V766.138H323.333V760.006Z" fill="#1295F3"/>
<path d="M479.977 760.006H459.531V766.138H479.977V760.006Z" fill="#1295F3"/>
<path d="M512.864 760.006H492.419V766.138H512.864V760.006Z" fill="#1295F3"/>
<path d="M600.29 760.006H579.845V766.138H600.29V760.006Z" fill="#1295F3"/>
<path d="M630.709 760.006H610.264V766.138H630.709V760.006Z" fill="#1295F3"/>
<path d="M663.596 760.006H643.151V766.138H663.596V760.006Z" fill="#1295F3"/>
<path d="M1018.58 714.134H1014.56C1005.5 700.884 997.639 700.264 982.419 699.08C977.736 698.714 972.423 698.305 966.202 697.464C952.332 695.604 947.771 688.154 942.491 679.531C940.1 675.624 937.632 671.594 934.023 667.51C922.954 654.979 898.069 658.643 897.815 658.676L897.306 655.367C898.402 655.201 924.249 651.382 936.536 665.285C940.333 669.591 943 673.941 945.347 677.771C950.572 686.306 954.347 692.471 966.645 694.132C972.766 694.951 978.024 695.36 982.662 695.726C999.233 697.032 1008.1 697.718 1018.58 714.134Z" fill="#2C488C"/>
<path d="M864.706 737.148H830.192C812.182 737.148 797.581 722.547 797.581 704.537V670.022C797.581 652.012 812.182 637.412 830.192 637.412H864.706C882.716 637.412 897.317 652.012 897.317 670.022V704.537C897.317 722.547 882.716 737.148 864.706 737.148Z" fill="#0086C9"/>
<path d="M881.631 685.044C881.631 686.837 881.499 688.597 881.233 690.313C881.166 690.733 881.1 691.143 881.012 691.564C880.447 694.519 879.495 697.331 878.222 699.954C878.1 700.209 877.978 700.452 877.846 700.707C875.621 705.035 872.499 708.821 868.724 711.832C868.525 711.998 868.315 712.153 868.105 712.319C864.263 715.241 859.78 717.378 854.899 718.462L854.024 718.65C852.784 718.894 851.534 719.071 850.25 719.171C849.829 719.204 849.419 719.237 848.999 719.248C848.478 719.281 847.947 719.293 847.416 719.293C843.774 719.293 840.265 718.717 836.966 717.665C836.457 717.499 835.948 717.333 835.439 717.134C834.265 716.702 833.114 716.193 832.007 715.629C831.753 715.507 831.509 715.374 831.266 715.241C826.506 712.684 822.421 709.042 819.355 704.648C819.2 704.437 819.056 704.216 818.901 703.995C816.787 700.818 815.193 697.275 814.23 693.479C814.097 692.958 813.975 692.438 813.875 691.907C813.61 690.623 813.422 689.317 813.311 687.988C813.289 687.656 813.255 687.324 813.244 687.003C813.211 686.35 813.189 685.708 813.189 685.055C813.189 681.49 813.731 678.07 814.739 674.838C814.827 674.55 814.927 674.262 815.016 673.985C816.621 669.281 819.222 665.041 822.554 661.521C822.742 661.333 822.919 661.145 823.107 660.957C826.484 657.547 830.579 654.846 835.151 653.086C835.416 652.987 835.671 652.887 835.937 652.787C839.523 651.514 843.386 650.817 847.416 650.817C849.342 650.817 851.235 650.972 853.072 651.282C853.393 651.337 853.725 651.393 854.046 651.459C854.279 651.503 854.511 651.548 854.733 651.603C855.187 651.703 855.629 651.802 856.083 651.924C861.02 653.208 865.536 655.577 869.344 658.754C869.544 658.92 869.743 659.086 869.942 659.263C873.971 662.783 877.159 667.222 879.185 672.258C879.296 672.513 879.395 672.768 879.484 673.033C880.325 675.258 880.934 677.594 881.288 680.018C881.355 680.472 881.41 680.926 881.454 681.38C881.565 682.586 881.631 683.804 881.631 685.044Z" fill="#7FC6F8"/>
<path d="M868.725 711.821C868.525 711.987 868.315 712.142 868.105 712.308L863.544 707.227L863.024 706.651L853.659 696.202L853.139 695.626L842.556 683.837L842.036 683.262L831.598 671.616L831.077 671.03L822.554 661.532C822.742 661.344 822.919 661.156 823.107 660.968L831.664 670.51L832.184 671.085L842.623 682.73L843.143 683.306L853.725 695.095L854.246 695.67L863.622 706.12L864.142 706.696L868.725 711.821Z" fill="#1E396E"/>
<path d="M878.222 699.943C878.1 700.198 877.979 700.441 877.846 700.696L874.713 697.198L874.193 696.622L864.828 686.173L864.308 685.597L853.725 673.808L853.205 673.222L842.756 661.565L842.235 660.99L835.14 653.075C835.406 652.976 835.66 652.876 835.926 652.776L842.811 660.458L843.331 661.034L853.77 672.679L854.29 673.255L864.872 685.044L865.393 685.63L874.757 696.08L875.278 696.667L878.222 699.943Z" fill="#1E396E"/>
<path d="M881.266 680.018C881.333 680.472 881.388 680.926 881.432 681.38L876.407 675.779L875.886 675.203L865.304 663.403L864.784 662.827L854.711 651.603C855.164 651.703 855.607 651.802 856.061 651.924L865.37 662.296L865.891 662.872L876.473 674.672L876.993 675.258L881.266 680.018Z" fill="#1E396E"/>
<path d="M854.899 718.44L854.024 718.628L852.596 717.034L852.076 716.459L842.7 706.009L842.18 705.434L831.609 693.645L831.089 693.058L820.639 681.413L820.119 680.826L814.728 674.827C814.816 674.539 814.916 674.251 815.005 673.974L820.694 680.317L821.215 680.893L831.664 692.538L832.184 693.113L842.767 704.902L843.287 705.489L852.663 715.939L853.183 716.525L854.899 718.44Z" fill="#1E396E"/>
<path d="M854.024 651.448L843.331 661.045L842.745 661.565L832.162 671.063L831.587 671.583L821.204 680.893L820.617 681.413L813.289 687.988C813.267 687.656 813.233 687.324 813.222 687.003L820.097 680.837L820.672 680.317L831.055 671.008L831.642 670.487L842.224 660.99L842.811 660.47L853.05 651.282C853.382 651.326 853.703 651.382 854.024 651.448Z" fill="#1E396E"/>
<path d="M869.92 659.263L865.891 662.872L865.304 663.392L854.301 673.266L853.725 673.786L843.143 683.273L842.567 683.793L832.184 693.102L831.609 693.623L822.642 701.659L822.056 702.179L819.344 704.614C819.189 704.404 819.045 704.183 818.89 703.961L821.536 701.592L822.122 701.072L831.088 693.025L831.675 692.504L842.047 683.195L842.623 682.675L853.205 673.188L853.781 672.668L864.795 662.794L865.371 662.274L869.322 658.732C869.522 658.909 869.721 659.086 869.92 659.263Z" fill="#1E396E"/>
<path d="M879.462 673.033L876.982 675.247L876.396 675.767L865.393 685.641L864.806 686.162L854.224 695.648L853.637 696.168L843.276 705.489L842.689 706.009L833.723 714.046L833.147 714.566L831.985 715.606C831.73 715.485 831.487 715.352 831.243 715.219L832.616 713.979L833.192 713.459L842.158 705.423L842.745 704.902L853.117 695.593L853.692 695.073L864.275 685.586L864.861 685.066L875.875 675.192L876.462 674.672L879.152 672.258C879.274 672.513 879.373 672.768 879.462 673.033Z" fill="#1E396E"/>
<path d="M881.233 690.302C881.167 690.722 881.1 691.132 881.012 691.553L875.3 696.678L874.724 697.198L864.142 706.696L863.566 707.216L853.194 716.525L852.607 717.045L850.261 719.16C849.84 719.193 849.431 719.226 849.01 719.237L852.098 716.47L852.674 715.95L863.046 706.64L863.633 706.12L874.215 696.622L874.802 696.102L881.233 690.302Z" fill="#1E396E"/>
<path d="M836.944 717.643C836.435 717.477 835.926 717.311 835.417 717.112L833.136 714.577L832.616 714.001L822.034 702.212L821.513 701.637L814.197 693.49C814.064 692.969 813.942 692.449 813.842 691.918L822.089 701.117L822.609 701.692L833.192 713.481L833.712 714.057L836.944 717.643Z" fill="#1E396E"/>
<path d="M864.706 637.733H830.192C812.182 637.733 797.581 623.132 797.581 605.122V570.608C797.581 552.598 812.182 537.997 830.192 537.997H864.706C882.716 537.997 897.317 552.598 897.317 570.608V605.122C897.317 623.143 882.716 637.733 864.706 637.733Z" fill="#0086C9"/>
<path d="M881.631 585.629C881.631 587.422 881.499 589.182 881.233 590.898C881.166 591.319 881.1 591.728 881.012 592.149C880.447 595.104 879.495 597.916 878.222 600.54C878.1 600.794 877.978 601.038 877.846 601.292C875.621 605.62 872.499 609.406 868.724 612.417C868.525 612.583 868.315 612.738 868.105 612.904C864.263 615.826 859.78 617.963 854.899 619.048L854.024 619.236C852.784 619.479 851.534 619.657 850.25 619.756C849.829 619.789 849.419 619.823 848.999 619.834C848.478 619.867 847.947 619.878 847.416 619.878C843.774 619.878 840.265 619.302 836.966 618.251C836.457 618.085 835.948 617.919 835.439 617.719C834.265 617.288 833.114 616.778 832.007 616.214C831.753 616.092 831.509 615.959 831.266 615.826C826.506 613.269 822.421 609.628 819.355 605.233C819.2 605.023 819.056 604.801 818.901 604.58C816.787 601.403 815.193 597.861 814.23 594.064C814.097 593.544 813.975 593.023 813.875 592.492C813.61 591.208 813.422 589.902 813.311 588.574C813.289 588.241 813.255 587.909 813.244 587.588C813.211 586.935 813.189 586.293 813.189 585.64C813.189 582.087 813.731 578.655 814.739 575.423C814.827 575.135 814.927 574.847 815.016 574.571C816.621 569.866 819.222 565.627 822.554 562.107C822.742 561.918 822.919 561.73 823.107 561.542C826.484 558.133 830.579 555.432 835.151 553.672C835.416 553.572 835.671 553.472 835.937 553.384C839.523 552.111 843.386 551.413 847.416 551.413C849.342 551.413 851.235 551.568 853.072 551.878C853.393 551.934 853.725 551.989 854.046 552.055C854.279 552.1 854.511 552.144 854.733 552.199C855.187 552.299 855.629 552.399 856.083 552.52C861.02 553.804 865.536 556.173 869.344 559.35C869.544 559.516 869.743 559.682 869.942 559.859C873.971 563.379 877.159 567.818 879.185 572.855C879.296 573.11 879.395 573.364 879.484 573.63C880.325 575.855 880.934 578.19 881.288 580.615C881.355 581.068 881.41 581.522 881.454 581.976C881.565 583.172 881.631 584.389 881.631 585.629Z" fill="#7FC6F8"/>
<path d="M868.725 612.406C868.525 612.572 868.315 612.727 868.105 612.893L863.544 607.812L863.024 607.237L853.659 596.787L853.139 596.211L842.556 584.422L842.036 583.847L831.598 572.202L831.077 571.615L822.554 562.118C822.742 561.929 822.919 561.741 823.107 561.553L831.664 571.095L832.184 571.67L842.623 583.316L843.143 583.891L853.725 595.68L854.246 596.256L863.622 606.705L864.142 607.292L868.725 612.406Z" fill="#1E396E"/>
<path d="M878.222 600.54C878.1 600.794 877.979 601.038 877.846 601.292L874.713 597.794L874.193 597.208L864.828 586.758L864.308 586.183L853.725 574.394L853.205 573.807L842.756 562.151L842.235 561.575L835.14 553.661C835.406 553.561 835.66 553.461 835.926 553.373L842.811 561.055L843.331 561.63L853.77 573.276L854.29 573.851L864.872 585.64L865.393 586.216L874.757 596.665L875.278 597.241L878.222 600.54Z" fill="#1E396E"/>
<path d="M881.266 580.604C881.333 581.057 881.388 581.511 881.432 581.965L876.407 576.364L875.886 575.788L865.304 563.988L864.784 563.413L854.711 552.188C855.164 552.288 855.607 552.388 856.061 552.509L865.37 562.881L865.891 563.457L876.473 575.257L876.993 575.833L881.266 580.604Z" fill="#1E396E"/>
<path d="M854.899 619.037L854.024 619.225L852.596 617.631L852.076 617.044L842.7 606.595L842.18 606.019L831.609 594.23L831.089 593.643L820.639 581.998L820.119 581.412L814.728 575.412C814.816 575.124 814.916 574.836 815.005 574.56L820.694 580.902L821.215 581.478L831.664 593.123L832.184 593.699L842.767 605.488L843.287 606.063L852.663 616.513L853.183 617.088L854.899 619.037Z" fill="#1E396E"/>
<path d="M854.024 552.044L843.331 561.642L842.745 562.162L832.162 571.659L831.587 572.18L821.204 581.489L820.617 582.009L813.289 588.585C813.267 588.252 813.233 587.92 813.222 587.599L820.097 581.434L820.672 580.913L831.055 571.604L831.642 571.084L842.224 561.586L842.811 561.066L853.05 551.878C853.382 551.912 853.703 551.978 854.024 552.044Z" fill="#1E396E"/>
<path d="M869.92 559.848L865.891 563.457L865.304 563.977L854.301 573.851L853.725 574.371L843.143 583.858L842.567 584.378L832.184 593.688L831.609 594.208L822.642 602.244L822.056 602.765L819.344 605.2C819.189 604.99 819.045 604.768 818.89 604.547L821.536 602.178L822.122 601.658L831.088 593.61L831.675 593.09L842.047 583.78L842.623 583.26L853.205 573.774L853.781 573.253L864.795 563.379L865.371 562.859L869.322 559.317C869.522 559.505 869.721 559.671 869.92 559.848Z" fill="#1E396E"/>
<path d="M879.462 573.619L876.982 575.833L876.396 576.353L865.393 586.227L864.806 586.747L854.224 596.234L853.637 596.754L843.254 606.063L842.667 606.584L833.701 614.62L833.125 615.14L831.963 616.181C831.708 616.059 831.465 615.926 831.221 615.793L832.594 614.553L833.17 614.033L842.136 605.997L842.722 605.477L853.095 596.167L853.67 595.647L864.253 586.16L864.839 585.64L875.853 575.766L876.44 575.246L879.13 572.833C879.274 573.098 879.373 573.364 879.462 573.619Z" fill="#1E396E"/>
<path d="M881.233 590.898C881.167 591.319 881.1 591.728 881.012 592.149L875.3 597.274L874.724 597.794L864.142 607.292L863.566 607.812L853.194 617.122L852.607 617.642L850.261 619.756C849.84 619.789 849.431 619.823 849.01 619.834L852.098 617.066L852.674 616.546L863.046 607.237L863.633 606.716L874.215 597.219L874.802 596.698L881.233 590.898Z" fill="#1E396E"/>
<path d="M836.944 618.229C836.435 618.063 835.926 617.896 835.417 617.697L833.136 615.162L832.616 614.587L822.034 602.798L821.513 602.222L814.197 594.075C814.064 593.555 813.942 593.035 813.842 592.503L822.089 601.702L822.609 602.277L833.192 614.066L833.712 614.642L836.944 618.229Z" fill="#1E396E"/>
<path d="M860.876 800.764L913.777 753.165C915.936 751.228 921.813 749.888 926.927 750.187L994.794 754.117C999.897 754.416 1002.29 756.22 1000.13 758.168L947.229 805.767C945.07 807.704 939.192 809.044 934.089 808.745L866.223 804.815C861.109 804.516 858.729 802.712 860.876 800.764Z" fill="#48ADF5"/>
<path d="M1000.93 755.92V750.153L861.396 795.029L860.201 796.28L860.09 802.39L921.736 804.405L1000.93 755.92Z" fill="#48ADF5"/>
<path d="M925.964 744.221L992.68 748.084C998.037 748.394 1000.54 750.298 998.281 752.335L948.546 797.077C945.292 800.011 936.403 802.026 928.699 801.572L868.924 798.118C863.245 797.786 860.588 795.771 862.99 793.613L915.161 746.678C916.932 745.073 921.769 743.977 925.964 744.221Z" fill="#7FC6F8"/>
<path d="M1000.92 750.165C1000.68 748.914 998.436 747.951 994.805 747.741L926.938 743.811C921.835 743.512 915.957 744.852 913.799 746.789L860.898 794.388C860.156 795.052 859.946 795.705 860.211 796.291C860.577 797.1 861.85 797.775 863.82 798.151C864.54 798.284 865.337 798.384 866.233 798.439L925.875 801.893L934.1 802.369C939.203 802.667 945.092 801.328 947.239 799.391L984.012 766.304L997.218 754.427L1000.14 751.803C1000.68 751.316 1000.94 750.84 1000.94 750.398C1000.93 750.298 1000.93 750.232 1000.92 750.165ZM997.794 751.637L995.026 754.128L976.252 771.031L976.219 771.053L945.601 798.594L945.026 799.114L944.904 799.225C943.299 800.675 938.904 801.671 935.096 801.45L934.82 801.439H934.797L927.292 800.996L867.218 797.52C866.311 797.465 865.525 797.354 864.861 797.177C862.746 796.646 862.005 795.605 863.233 794.487L863.355 794.388L863.366 794.376L863.942 793.856L916.134 746.889C917.739 745.45 922.145 744.453 925.953 744.675L993.82 748.593C997.063 748.781 998.834 749.789 998.303 750.973C998.203 751.206 998.037 751.416 997.794 751.637Z" fill="#1295F3"/>
<path d="M865.171 797.897L934.255 801.893C938.893 802.158 944.251 800.952 946.21 799.181L946.775 798.671L862.769 793.812L861.407 795.03C859.88 796.402 861.562 797.686 865.171 797.897Z" fill="#1295F3"/>
<path d="M1026.18 841.422C1026.01 841.798 1025.84 842.163 1025.68 842.54C1025.35 843.281 1025.01 844.012 1024.67 844.731C1011.91 844.621 995.68 845.728 978.799 846.879C935.141 849.857 890.011 852.934 875.61 838.942C870.839 834.304 869.134 829.4 870.529 824.342C872.709 816.449 882.041 809.996 889.092 806.121C891.062 805.036 892.867 804.151 894.284 803.498C896.01 802.69 897.173 802.225 897.372 802.147L898.346 803.619L899.32 805.103C899.265 805.125 898.025 805.623 896.132 806.52C890.022 809.409 877.082 816.438 874.713 825.028C873.595 829.112 874.967 832.976 878.941 836.839C891.926 849.447 937.886 846.314 978.433 843.547C996.023 842.363 1012.93 841.222 1026.18 841.422Z" fill="#48ADF5"/>
<path d="M774.225 388.87H273.521V682.819H774.225V388.87Z" fill="#009FDC"/>
<path d="M774.225 388.87H273.521V635.851H774.225V388.87Z" fill="#006CB5"/>
<path d="M589.398 730.694V737.834H442.385V730.694C452.768 730.694 461.28 722.68 462.066 712.496C462.099 711.987 462.122 711.466 462.122 710.957V682.819H569.661V710.957C569.661 711.477 569.683 711.987 569.717 712.496C570.093 717.333 572.207 721.683 575.439 724.916C579.015 728.491 583.952 730.694 589.398 730.694Z" fill="#009FDC"/>
<g opacity="0.7">
<path opacity="0.7" d="M569.661 682.808H462.122V688.685H569.661V682.808Z" fill="#006CB5"/>
</g>
<g opacity="0.7">
<path opacity="0.7" d="M589.398 730.694H442.385C452.768 730.694 461.28 722.68 462.066 712.496H569.717C570.093 717.333 572.207 721.683 575.439 724.916C579.015 728.491 583.952 730.694 589.398 730.694Z" fill="#006CB5"/>
</g>
<path d="M165.627 640.567C165.627 640.567 160.413 594.319 180.427 555.332C182.552 551.203 187.821 552.244 188.684 556.97C191.795 573.929 194.905 607.801 180.559 643.788C160.147 694.995 165.627 640.567 165.627 640.567Z" fill="#ADC0E4"/>
<path d="M189.526 649.71C189.526 649.71 192.791 603.285 219.546 568.582C222.38 564.907 227.372 566.888 227.372 571.693C227.35 588.928 224.261 622.8 203.628 655.588C174.261 702.246 189.526 649.71 189.526 649.71Z" fill="#ADC0E4"/>
<path d="M176.209 640.456C176.209 640.456 176.309 593.909 200.628 557.468C203.207 553.605 208.321 555.243 208.643 560.036C209.805 577.238 209.03 611.244 190.677 645.36C164.564 693.921 176.209 640.456 176.209 640.456Z" fill="#E5F0FB"/>
<path d="M191.939 642.814C191.939 642.814 201.126 607.657 226.641 584.876C229.342 582.463 232.896 584.699 232.198 588.385C229.708 601.613 222.457 627.162 201.912 649.356C172.667 680.926 191.939 642.814 191.939 642.814Z" fill="#E5F0FB"/>
<path d="M157.601 645.98C157.601 645.98 162.815 599.732 142.801 560.745C140.676 556.616 135.407 557.657 134.544 562.383C131.433 579.342 128.334 613.214 142.669 649.201C163.081 700.419 157.601 645.98 157.601 645.98Z" fill="#ADC0E4"/>
<path d="M133.702 655.134C133.702 655.134 130.437 608.709 103.682 574.006C100.848 570.331 95.856 572.313 95.856 577.117C95.8781 594.352 98.9665 628.235 119.6 661.012C148.967 707.67 133.702 655.134 133.702 655.134Z" fill="#ADC0E4"/>
<path d="M147.008 645.88C147.008 645.88 146.908 599.333 122.589 562.892C120.01 559.029 114.895 560.667 114.574 565.461C113.412 582.662 114.187 616.668 132.54 650.784C158.664 699.334 147.008 645.88 147.008 645.88Z" fill="#E5F0FB"/>
<path d="M174.106 648.382C174.106 648.382 182.884 602.676 165.948 562.261C164.154 557.978 158.819 558.609 157.59 563.258C153.174 579.917 147.462 613.458 158.974 650.441C175.357 703.087 174.106 648.382 174.106 648.382Z" fill="#E5F0FB"/>
<path d="M131.289 648.238C131.289 648.238 122.102 613.081 96.5866 590.3C93.8856 587.887 90.3323 590.123 91.0297 593.809C93.5203 607.037 100.771 632.586 121.316 654.78C150.561 686.35 131.289 648.238 131.289 648.238Z" fill="#E5F0FB"/>
<path d="M168.084 724.838H156.804C125.267 724.838 99.4646 699.035 99.4646 667.499V642.216C99.4646 640.567 100.815 639.205 102.475 639.205H225.424V667.499C225.424 699.035 199.621 724.838 168.084 724.838Z" fill="#2C488C"/>
<path d="M766.742 395.367H280.007V626.531H766.742V395.367Z" fill="#F1F1F1"/>
<g opacity="0.1">
<path opacity="0.1" d="M395.838 406.038H291.475V510.401H395.838V406.038Z" fill="#1295F3"/>
</g>
<g opacity="0.1">
<path opacity="0.1" d="M395.838 521.891H291.475V616.978H395.838V521.891Z" fill="#1295F3"/>
</g>
<g opacity="0.1">
<path opacity="0.1" d="M752.185 533.857H416.062V616.967H752.185V533.857Z" fill="#1295F3"/>
</g>
<path d="M630.847 406H416V523.58H630.847V406Z" fill="#0A74C0"/>
<path fill-rule="evenodd" clip-rule="evenodd" d="M529.86 454.62C534.05 454.62 537.45 451.22 537.45 447.03C537.45 442.84 534.05 439.44 529.86 439.44C525.67 439.44 522.27 442.84 522.27 447.03C522.27 451.23 525.67 454.62 529.86 454.62ZM527.19 447.36C528.96 447.36 530.4 445.92 530.4 444.15C530.4 442.38 528.96 440.94 527.19 440.94C525.42 440.94 523.98 442.38 523.98 444.15C523.98 445.92 525.42 447.36 527.19 447.36Z" fill="white"/>
<path fill-rule="evenodd" clip-rule="evenodd" d="M512.55 455.05C516.74 455.05 520.14 451.65 520.14 447.46C520.14 443.27 516.74 439.87 512.55 439.87C508.36 439.87 504.96 443.27 504.96 447.46C504.96 451.65 508.36 455.05 512.55 455.05ZM509.66 447.57C511.43 447.57 512.87 446.13 512.87 444.36C512.87 442.59 511.43 441.15 509.66 441.15C507.89 441.15 506.45 442.59 506.45 444.36C506.45 446.13 507.89 447.57 509.66 447.57Z" fill="white"/>
<path d="M518.53 453.55H524.51L525.36 454.73L522.26 460.18H520.76L517.66 454.73L518.53 453.55Z" fill="white"/>
<path fill-rule="evenodd" clip-rule="evenodd" d="M493 417.65C495.54 418.45 497.62 419.19 499.46 419.84C504 421.45 507.12 422.56 512.23 422.88C516.91 423.18 528.77 422.51 533.6 421.92C538.74 421.29 542.42 420.21 547.64 418.68C549.38 418.17 551.29 417.61 553.48 417L550.49 429.18L542.97 431.06C547.87 434.7 550.92 439.9 550.92 446.49C550.92 455.33 545.9 461.35 537.99 464.87C546.25 468.95 551.99 477.46 551.99 487.3C551.99 501.11 541.84 510.29 526.99 512.3C514.4 514.01 503.63 509.43 496.36 500.8C499.68 499.87 502.82 495.38 502.63 491.57C502.63 491.17 502.59 490.77 502.52 490.39L502.53 490.4C509.58 500.55 515.15 502.15 522.72 502.15C533.05 502.15 539.39 495.13 539.39 486.34C539.39 477.55 532.34 470.74 521.12 470.74C515.43 470.74 509.23 472.81 504.81 476.13C504.91 475.93 505.01 475.74 505.11 475.55C505.44 474.32 505.89 472.43 506.32 470.63C506.67 469.15 507.01 467.73 507.26 466.76C498.33 463.02 493.02 456.4 493.02 446.49C493.02 440.66 494.63 434.61 499.33 430.58L495.69 430.04L493 417.65ZM522.16 461.46C533.78 461.46 543.21 455 543.21 447.04C543.21 439.07 533.79 432.62 522.16 432.62C510.54 432.62 501.11 439.08 501.11 447.04C501.12 455 510.54 461.46 522.16 461.46Z" fill="white"/>
<path d="M689.101 544.13H431.404V550.605H689.101V544.13Z" fill="#0A74C0"/>
<path d="M689.101 557.203H431.404V563.678H689.101V557.203Z" fill="#0A74C0"/>
<path d="M689.09 570.287H546.205V576.762H689.09V570.287Z" fill="#0A74C0"/>
<path d="M627.809 583.36H516.993V589.835H627.809V583.36Z" fill="#0A74C0"/>
<path d="M689.09 596.444H546.205V602.92H689.09V596.444Z" fill="#0A74C0"/>
<path d="M367.234 491.605H298.991V494.837H367.234V491.605Z" fill="#0A74C0"/>
<path d="M381.315 491.605H373.81V499.11H381.315V491.605Z" fill="#0A74C0"/>
<path d="M355.811 491.605H324.506V494.837H355.811V491.605Z" fill="#1295F3"/>
<path d="M367.234 473.85H298.991V477.082H367.234V473.85Z" fill="#0A74C0"/>
<path d="M381.315 473.85H373.81V481.355H381.315V473.85Z" fill="#0A74C0"/>
<path d="M329.731 473.85H307.924V477.082H329.731V473.85Z" fill="#1295F3"/>
<path d="M367.234 456.083H298.991V459.316H367.234V456.083Z" fill="#0A74C0"/>
<path d="M381.315 456.083H373.81V463.588H381.315V456.083Z" fill="#56B3F6"/>
<path d="M354.571 456.083H332.764V459.316H354.571V456.083Z" fill="#56B3F6"/>
<path d="M367.234 438.317H298.991V441.549H367.234V438.317Z" fill="#0A74C0"/>
<path d="M381.315 438.317H373.81V445.822H381.315V438.317Z" fill="#56B3F6"/>
<path d="M341.099 438.317H307.924V441.549H341.099V438.317Z" fill="#56B3F6"/>
<path d="M367.234 420.562H298.991V423.794H367.234V420.562Z" fill="#0A74C0"/>
<path d="M381.315 420.562H373.81V428.067H381.315V420.562Z" fill="#1295F3"/>
<path d="M360.272 420.562H331.181V423.794H360.272V420.562Z" fill="#1295F3"/>
<path d="M336.362 531.987H329.731V538.617H336.362V531.987Z" fill="#0A74C0"/>
<path d="M348.206 531.987H341.576V538.617H348.206V531.987Z" fill="#0A74C0"/>
<path d="M387.337 532.839H352.778V535.296H387.337V532.839Z" fill="#0A74C0"/>
<path d="M319.835 531.156L325.27 535.296L319.835 538.473V531.156Z" fill="#0A74C0"/>
<path d="M336.362 544.661H329.731V551.292H336.362V544.661Z" fill="#56B3F6"/>
<path d="M348.206 544.661H341.576V551.292H348.206V544.661Z" fill="#0A74C0"/>
<path d="M387.337 545.524H352.778V547.982H387.337V545.524Z" fill="#0A74C0"/>
<path d="M319.835 543.831L325.27 547.982L319.835 551.148V543.831Z" fill="#0A74C0"/>
<path d="M336.362 557.347H329.731V563.977H336.362V557.347Z" fill="#1295F3"/>
<path d="M348.206 557.347H341.576V563.977H348.206V557.347Z" fill="#0A74C0"/>
<path d="M387.337 558.199H352.778V560.656H387.337V558.199Z" fill="#0A74C0"/>
<path d="M319.835 556.516L325.27 560.656L319.835 563.833V556.516Z" fill="#0A74C0"/>
<path d="M336.362 570.032H329.731V576.663H336.362V570.032Z" fill="#1295F3"/>
<path d="M348.206 570.032H341.576V576.663H348.206V570.032Z" fill="#0A74C0"/>
<path d="M387.337 570.885H352.778V573.342H387.337V570.885Z" fill="#0A74C0"/>
<path d="M319.835 569.202L325.27 573.342L319.835 576.519V569.202Z" fill="#0A74C0"/>
<path d="M336.362 582.707H329.731V589.337H336.362V582.707Z" fill="#56B3F6"/>
<path d="M348.206 582.707H341.576V589.337H348.206V582.707Z" fill="#0A74C0"/>
<path d="M387.337 583.57H352.778V586.028H387.337V583.57Z" fill="#0A74C0"/>
<path d="M319.835 581.888L325.27 586.028L319.835 589.193V581.888Z" fill="#0A74C0"/>
<path d="M336.362 595.392H329.731V602.023H336.362V595.392Z" fill="#56B3F6"/>
<path d="M348.206 595.392H341.576V602.023H348.206V595.392Z" fill="#0A74C0"/>
<path d="M387.337 596.245H352.778V598.702H387.337V596.245Z" fill="#0A74C0"/>
<path d="M319.835 594.562L325.27 598.702L319.835 601.879V594.562Z" fill="#0A74C0"/>
<g opacity="0.5">
<g opacity="0.5">
<path opacity="0.5" d="M297.951 534.809C297.951 534.809 299.7 532.551 302.069 532.551C304.493 532.551 305.976 534.809 305.976 534.809C305.976 534.809 304.714 537.067 302.069 537.067C299.279 537.067 297.951 534.809 297.951 534.809Z" fill="#1295F3"/>
</g>
<g opacity="0.5">
<path opacity="0.5" d="M300.408 534.809C300.408 533.946 301.106 533.248 301.969 533.248C302.832 533.248 303.53 533.946 303.53 534.809C303.53 535.673 302.832 536.37 301.969 536.37C301.106 536.37 300.408 535.673 300.408 534.809Z" fill="#282C61"/>
</g>
<g opacity="0.5">
<path opacity="0.5" d="M301.017 534.809C301.017 534.278 301.449 533.857 301.969 533.857C302.5 533.857 302.921 534.289 302.921 534.809C302.921 535.341 302.489 535.761 301.969 535.761C301.449 535.761 301.017 535.341 301.017 534.809Z" fill="#1295F3"/>
</g>
</g>
<g opacity="0.5">
<g opacity="0.5">
<path opacity="0.5" d="M297.951 547.495C297.951 547.495 299.7 545.237 302.069 545.237C304.493 545.237 305.976 547.495 305.976 547.495C305.976 547.495 304.714 549.753 302.069 549.753C299.279 549.753 297.951 547.495 297.951 547.495Z" fill="#1295F3"/>
</g>
<g opacity="0.5">
<path opacity="0.5" d="M300.408 547.495C300.408 546.631 301.106 545.934 301.969 545.934C302.832 545.934 303.53 546.631 303.53 547.495C303.53 548.358 302.832 549.056 301.969 549.056C301.106 549.056 300.408 548.358 300.408 547.495Z" fill="#282C61"/>
</g>
<g opacity="0.5">
<path opacity="0.5" d="M301.017 547.495C301.017 546.963 301.449 546.543 301.969 546.543C302.5 546.543 302.921 546.975 302.921 547.495C302.921 548.026 302.489 548.447 301.969 548.447C301.449 548.447 301.017 548.015 301.017 547.495Z" fill="#1295F3"/>
</g>
</g>
<g opacity="0.5">
<g opacity="0.5">
<path opacity="0.5" d="M297.951 560.18C297.951 560.18 299.7 557.922 302.069 557.922C304.493 557.922 305.976 560.18 305.976 560.18C305.976 560.18 304.714 562.439 302.069 562.439C299.279 562.439 297.951 560.18 297.951 560.18Z" fill="#1295F3"/>
</g>
<g opacity="0.5">
<path opacity="0.5" d="M300.408 560.18C300.408 559.317 301.106 558.62 301.969 558.62C302.832 558.62 303.53 559.317 303.53 560.18C303.53 561.044 302.832 561.741 301.969 561.741C301.106 561.741 300.408 561.044 300.408 560.18Z" fill="#282C61"/>
</g>
<g opacity="0.5">
<path opacity="0.5" d="M301.017 560.18C301.017 559.649 301.449 559.228 301.969 559.228C302.5 559.228 302.921 559.66 302.921 560.18C302.921 560.712 302.489 561.132 301.969 561.132C301.449 561.132 301.017 560.701 301.017 560.18Z" fill="#1295F3"/>
</g>
</g>
<g opacity="0.5">
<g opacity="0.5">
<path opacity="0.5" d="M297.951 572.855C297.951 572.855 299.7 570.597 302.069 570.597C304.493 570.597 305.976 572.855 305.976 572.855C305.976 572.855 304.714 575.113 302.069 575.113C299.279 575.113 297.951 572.855 297.951 572.855Z" fill="#1295F3"/>
</g>
<g opacity="0.5">
<path opacity="0.5" d="M300.408 572.855C300.408 571.991 301.106 571.294 301.969 571.294C302.832 571.294 303.53 571.991 303.53 572.855C303.53 573.718 302.832 574.416 301.969 574.416C301.106 574.416 300.408 573.718 300.408 572.855Z" fill="#282C61"/>
</g>
<g opacity="0.5">
<path opacity="0.5" d="M301.017 572.855C301.017 572.324 301.449 571.903 301.969 571.903C302.5 571.903 302.921 572.335 302.921 572.855C302.921 573.386 302.489 573.807 301.969 573.807C301.449 573.807 301.017 573.386 301.017 572.855Z" fill="#1295F3"/>
</g>
</g>
<g opacity="0.5">
<g opacity="0.5">
<path opacity="0.5" d="M297.951 585.54C297.951 585.54 299.7 583.282 302.069 583.282C304.493 583.282 305.976 585.54 305.976 585.54C305.976 585.54 304.714 587.799 302.069 587.799C299.279 587.799 297.951 585.54 297.951 585.54Z" fill="#1295F3"/>
</g>
<g opacity="0.5">
<path opacity="0.5" d="M300.408 585.54C300.408 584.677 301.106 583.98 301.969 583.98C302.832 583.98 303.53 584.677 303.53 585.54C303.53 586.404 302.832 587.101 301.969 587.101C301.106 587.101 300.408 586.404 300.408 585.54Z" fill="#282C61"/>
</g>
<g opacity="0.5">
<path opacity="0.5" d="M301.017 585.54C301.017 585.009 301.449 584.589 301.969 584.589C302.5 584.589 302.921 585.02 302.921 585.54C302.921 586.072 302.489 586.492 301.969 586.492C301.449 586.492 301.017 586.072 301.017 585.54Z" fill="#1295F3"/>
</g>
</g>
<g opacity="0.5">
<g opacity="0.5">
<path opacity="0.5" d="M297.951 598.226C297.951 598.226 299.7 595.968 302.069 595.968C304.493 595.968 305.976 598.226 305.976 598.226C305.976 598.226 304.714 600.484 302.069 600.484C299.279 600.484 297.951 598.226 297.951 598.226Z" fill="#1295F3"/>
</g>
<g opacity="0.5">
<path opacity="0.5" d="M300.408 598.226C300.408 597.363 301.106 596.665 301.969 596.665C302.832 596.665 303.53 597.363 303.53 598.226C303.53 599.089 302.832 599.787 301.969 599.787C301.106 599.787 300.408 599.089 300.408 598.226Z" fill="#282C61"/>
</g>
<g opacity="0.5">
<path opacity="0.5" d="M301.017 598.226C301.017 597.695 301.449 597.274 301.969 597.274C302.5 597.274 302.921 597.706 302.921 598.226C302.921 598.746 302.489 599.178 301.969 599.178C301.449 599.178 301.017 598.746 301.017 598.226Z" fill="#1295F3"/>
</g>
</g>
<path d="M689.101 583.36H590.915V589.835H689.101V583.36Z" fill="#7FC6F8"/>
<path d="M665.312 570.287H608.26V576.762H665.312V570.287Z" fill="#7FC6F8"/>
<path d="M667.98 544.13H601.962V550.605H667.98V544.13Z" fill="#7FC6F8"/>
<path d="M679.083 557.203H622.031V563.678H679.083V557.203Z" fill="#56B3F6"/>
<path d="M584.417 538.309L581.669 535.561L578.922 538.309L581.669 541.056L584.417 538.309Z" fill="#1295F3"/>
<g opacity="0.1">
<path opacity="0.1" d="M752.185 406.138H648.73V523.607H752.185V406.138Z" fill="#DEE6F6"/>
</g>
<path d="M708.229 413.211H657.73V414.65H708.229V413.211Z" fill="#56B3F6"/>
<path d="M696.805 416.798H657.73V418.237H696.805V416.798Z" fill="#56B3F6"/>
<path d="M737.563 414.053H734.828V416.787H737.563V414.053Z" fill="#56B3F6"/>
<path d="M708.229 429.14H657.73V430.579H708.229V429.14Z" fill="#56B3F6"/>
<path d="M696.805 432.727H657.73V434.166H696.805V432.727Z" fill="#56B3F6"/>
<path d="M737.563 429.982H734.828V432.716H737.563V429.982Z" fill="#56B3F6"/>
<path d="M708.229 445.08H657.73V446.519H708.229V445.08Z" fill="#56B3F6"/>
<path d="M696.805 448.667H657.73V450.106H696.805V448.667Z" fill="#56B3F6"/>
<path d="M737.563 445.922H734.828V448.656H737.563V445.922Z" fill="#56B3F6"/>
<path d="M708.229 461.02H657.73V462.459H708.229V461.02Z" fill="#56B3F6"/>
<path d="M696.805 464.607H657.73V466.046H696.805V464.607Z" fill="#56B3F6"/>
<path d="M737.563 461.851H734.828V464.585H737.563V461.851Z" fill="#56B3F6"/>
<path d="M708.229 476.949H657.73V478.388H708.229V476.949Z" fill="#56B3F6"/>
<path d="M696.805 480.536H657.73V481.975H696.805V480.536Z" fill="#56B3F6"/>
<path d="M737.563 477.791H734.828V480.525H737.563V477.791Z" fill="#56B3F6"/>
<path d="M737.563 492.236H734.828V494.97H737.563V492.236Z" fill="#56B3F6"/>
<path d="M708.229 492.889H657.73V494.328H708.229V492.889Z" fill="#56B3F6"/>
<path d="M696.805 496.476H657.73V497.915H696.805V496.476Z" fill="#56B3F6"/>
<path d="M708.229 508.818H657.73V510.257H708.229V508.818Z" fill="#56B3F6"/>
<path d="M696.805 512.405H657.73V513.844H696.805V512.405Z" fill="#56B3F6"/>
<path d="M737.563 509.659H734.828V512.394H737.563V509.659Z" fill="#56B3F6"/>
<path d="M692.51 758.08C692.51 758.08 685.293 775.924 687.839 777.783C690.385 779.643 699.118 772.072 701.432 764.068C703.745 756.076 692.51 758.08 692.51 758.08Z" fill="#C09B82"/>
<path d="M840.055 878.46C808.108 878.46 774.756 878.46 743.23 878.449C742.012 875.516 740.717 872.438 739.378 869.306C730.633 848.938 719.663 826.013 713.564 823.29C702.329 818.264 695.565 822.659 681.595 806.354C667.615 790.037 658.726 784.491 664.216 780.728C669.707 776.964 687.839 791.111 692.864 790.502C696.904 790.015 699.008 780.219 698.676 769.891C698.587 767.19 698.332 764.456 697.901 761.832C697.69 760.515 697.425 759.22 697.126 757.98C696.65 756.043 696.052 754.228 695.344 752.612C693.971 749.479 694.093 747.331 695.144 745.892C698.277 741.575 709.734 743.656 714.062 744.686C715.988 745.14 721.966 741.531 726.15 743.59C732.637 746.789 736.422 743.103 740.728 745.87C743.772 747.83 750.049 748.748 752.207 751.582C756.325 756.962 757.344 768.352 761.351 778.879C765.059 788.62 766.354 798.849 779.084 816.095C784.752 823.777 802.319 841.621 820.052 859.033C826.926 865.763 833.822 872.46 840.055 878.46Z" fill="#9E8573"/>
<path d="M695.056 745.848C695.056 745.848 668.401 767.666 671.866 770.599C675.33 773.533 684.119 770.655 698.499 761.434C712.878 752.224 695.056 745.848 695.056 745.848Z" fill="#9E8573"/>
<path d="M848.047 878.46H840.055C808.108 878.46 774.756 878.46 743.23 878.449H733.81L732.714 876.18C732.714 876.18 734.939 873.18 739.378 869.295C751.023 859.111 777.933 842.872 820.041 859C821.912 859.719 823.816 860.494 825.753 861.347L848.047 878.46Z" fill="#2C488C"/>
<path d="M412.431 769.227C412.431 769.227 417.058 787.912 414.268 789.395C411.49 790.879 403.907 782.145 402.745 773.898C401.583 765.651 412.431 769.227 412.431 769.227Z" fill="#C09B82"/>
<path d="M416.416 818.552C400.277 832.721 394.2 827.43 382.366 830.806C375.935 832.644 361.844 853.786 350.309 872.715C349.324 874.331 348.361 875.936 347.409 877.508C309.33 877.375 271.174 877.231 236.017 877.11C245.548 870.313 258.743 860.815 271.893 851.13C291.907 836.385 311.821 821.209 318.529 814.401C333.572 799.125 336.284 789.185 341.343 780.064C346.723 770.345 346.568 758.899 354.006 759.01C357.67 759.065 360.903 754.283 364.279 752.733C368.939 750.597 373.389 755.346 380.263 753.099C384.702 751.648 390.768 755.567 392.749 755.379C396.546 755.036 405.745 753.63 409.907 755.766C412.221 756.951 412.973 759.231 410.405 763.393C409.475 764.888 408.634 766.603 407.892 768.452C407.472 769.503 407.073 770.588 406.708 771.717C405.845 774.374 405.158 777.208 404.671 780.019C402.878 790.203 403.586 800.188 407.516 801.251C412.409 802.568 432.644 788.986 437.547 793.491C442.44 797.996 432.555 804.372 416.416 818.552Z" fill="#9E8573"/>
<path d="M409.464 755.645C409.464 755.645 449.724 767.633 447.621 771.662C445.529 775.68 424.463 774.994 407.66 771.928C390.868 768.85 409.464 755.645 409.464 755.645Z" fill="#9E8573"/>
<path d="M354.062 877.53C351.848 877.519 349.634 877.519 347.42 877.508C309.341 877.375 271.185 877.231 236.028 877.109C231.479 877.098 226.985 877.076 222.535 877.065L265.927 852.646C267.964 852.081 269.945 851.572 271.904 851.13C315.883 841.101 340.236 860.981 350.32 872.715C351.914 874.575 353.154 876.235 354.062 877.53Z" fill="#2C488C"/>
<path d="M560.23 847.443C560.23 847.698 560.241 847.964 560.274 848.207C560.374 849.015 560.617 849.768 560.994 850.454C561.282 850.986 561.647 851.473 562.068 851.893C563.208 853.034 564.78 853.731 566.517 853.731H655.04C658.516 853.731 661.338 850.908 661.338 847.432C661.338 845.694 660.63 844.123 659.49 842.982C658.349 841.842 656.778 841.134 655.04 841.134H566.517C563.053 841.156 560.23 843.968 560.23 847.443Z" fill="#2C488C"/>
<path d="M566.982 840.016H597.335C597.866 840.016 598.298 839.584 598.298 839.053C598.298 838.521 597.866 838.09 597.335 838.09H566.982C566.451 838.09 566.019 838.521 566.019 839.053C566.019 839.573 566.451 840.016 566.982 840.016Z" fill="#2C488C"/>
<path d="M568.664 841.147H571.951V840.007H568.664V841.147Z" fill="#243862"/>
<path d="M560.994 850.454C561.282 850.986 561.647 851.473 562.068 851.893C563.208 853.034 564.78 853.731 566.518 853.731H585.269V850.443H560.994V850.454Z" fill="#243862"/>
<path d="M673.05 845.606V849.292C673.05 849.691 672.994 850.089 672.895 850.454C672.386 852.347 670.659 853.742 668.6 853.742H576.391C574.332 853.742 572.606 852.347 572.096 850.454C571.997 850.078 571.941 849.691 571.941 849.292V845.606C571.941 843.149 573.934 841.156 576.391 841.156H668.6C671.057 841.156 673.05 843.137 673.05 845.606Z" fill="#ADC0E4"/>
<path d="M672.895 850.454C672.386 852.347 670.659 853.742 668.6 853.742H576.392C574.333 853.742 572.606 852.347 572.097 850.454H672.895Z" fill="#0C8DE9"/>
<path d="M663.895 847.466C663.895 849.425 664.604 851.163 665.722 852.325C665.744 852.347 665.766 852.38 665.799 852.403C666.663 853.266 667.759 853.786 668.954 853.786C670.825 853.786 675.452 850.975 678.319 849.104C679.747 848.174 680.743 847.477 680.743 847.477C680.743 847.477 679.747 846.779 678.319 845.849C675.452 843.979 670.825 841.167 668.954 841.167C668.412 841.167 667.891 841.278 667.404 841.466C666.585 841.798 665.843 842.385 665.268 843.149C664.626 843.99 664.172 845.052 663.984 846.226C663.984 846.237 663.984 846.248 663.984 846.27C663.928 846.646 663.895 847.056 663.895 847.466Z" fill="#8D9ACE"/>
<path d="M663.895 847.466C663.895 849.425 664.604 851.163 665.722 852.325L679.913 847.443L663.984 846.248C663.928 846.646 663.895 847.056 663.895 847.466Z" fill="#687BBB"/>
<path d="M665.279 843.137L679.437 847.001L667.415 841.455C666.585 841.776 665.855 842.363 665.279 843.137Z" fill="#A1AED9"/>
<path d="M677.4 847.466C677.4 848.218 677.787 848.86 678.319 849.093C679.747 848.163 680.743 847.466 680.743 847.466C680.743 847.466 679.747 846.768 678.319 845.838C677.776 846.071 677.4 846.713 677.4 847.466Z" fill="#1A2D4C"/>
<path d="M114.839 730.473L108.631 731.47L120.382 804.617L126.589 803.62L114.839 730.473Z" fill="#E5F0FB"/>
<path d="M109.681 718.108L108.651 731.491L114.85 730.495L109.681 718.108Z" fill="#EECBAB"/>
<path d="M182.117 737.812L175.936 736.664L162.407 809.507L168.589 810.655L182.117 737.812Z" fill="#E5F0FB"/>
<path d="M181.379 724.418L175.91 736.66L182.087 737.812L181.379 724.418Z" fill="#EECBAB"/>
<path d="M174.245 716.469L168.063 715.321L154.527 788.164L160.709 789.313L174.245 716.469Z" fill="#E5F0FB"/>
<path d="M173.541 703.054L168.073 715.307L174.25 716.448L173.541 703.054Z" fill="#EECBAB"/>
<path d="M181.434 761.367H131.92V832.721H181.434V761.367Z" fill="#0C8DE9"/>
<path d="M156.672 761.367H107.158V832.721H156.672V761.367Z" fill="#7FC6F8"/>
<path d="M748.437 661.113L689.638 649.933L679.564 702.914L738.363 714.094L748.437 661.113Z" fill="#ADC0E4"/>
<path d="M744.127 665.54L685.328 654.36L683.876 661.994L742.675 673.174L744.127 665.54Z" fill="#E5F0FB"/>
<path d="M352.544 641.703L294.337 655.636L306.892 708.084L365.099 694.15L352.544 641.703Z" fill="#8D9ACE"/>
<path d="M352.552 641.694L294.345 655.628L297.105 667.157L355.312 653.224L352.552 641.694Z" fill="#687BBB"/>
<path d="M780.65 609.328L721.696 619.652L730.999 672.774L789.953 662.449L780.65 609.328Z" fill="#709AD1"/>
<path d="M780.65 609.331L721.695 619.656L723.74 631.333L782.695 621.009L780.65 609.331Z" fill="#5B8AC8"/>
<path d="M695.77 293.496L636.971 282.315L626.897 335.296L685.696 346.477L695.77 293.496Z" fill="#709AD1"/>
<path d="M695.772 293.489L636.973 282.308L634.758 293.955L693.557 305.135L695.772 293.489Z" fill="#5B8AC8"/>
<path d="M758.882 298.842H699.03V352.772H758.882V298.842Z" fill="#709AD1"/>
<path d="M758.882 298.842H699.03V310.697H758.882V298.842Z" fill="#5B8AC8"/>
<path d="M827.513 277.81H767.66V331.74H827.513V277.81Z" fill="#709AD1"/>
<path d="M827.502 277.81H767.649V289.665H827.502V277.81Z" fill="#5B8AC8"/>
<path d="M736.189 262.824L677.39 251.643L667.316 304.625L726.115 315.805L736.189 262.824Z" fill="#ADC0E4"/>
<path d="M731.877 267.251L673.078 256.07L671.626 263.704L730.425 274.885L731.877 267.251Z" fill="#E5F0FB"/>
<path d="M791.924 310.127L734.825 328.071L750.993 379.52L808.092 361.576L791.924 310.127Z" fill="#ADC0E4"/>
<path d="M790.209 316.058L733.109 334.002L735.439 341.415L792.538 323.471L790.209 316.058Z" fill="#E5F0FB"/>
<path d="M1078.57 878.05H1.43413C0.650875 878.05 0 877.47 0 876.75V876.65C0 875.94 0.639843 875.35 1.43413 875.35H1078.57C1079.35 875.35 1080 875.93 1080 876.65V876.75C1080 877.46 1079.35 878.05 1078.57 878.05Z" fill="#006CB5"/>
</svg>
